<?xml version="1.0" encoding="UTF-8" standalone="no"?>
<!-- Created with Inkscape (http://www.inkscape.org/) -->

<svg
   xmlns:dc="http://purl.org/dc/elements/1.1/"
   xmlns:cc="http://creativecommons.org/ns#"
   xmlns:rdf="http://www.w3.org/1999/02/22-rdf-syntax-ns#"
   xmlns:svg="http://www.w3.org/2000/svg"
   xmlns="http://www.w3.org/2000/svg"
   version="1.1"
   width="16"
   height="16"
   id="svg3013">
  <defs
     id="defs3015" />
  <metadata
     id="metadata3018">
    <rdf:RDF>
      <cc:Work
         rdf:about="">
        <dc:format>image/svg+xml</dc:format>
        <dc:type
           rdf:resource="http://purl.org/dc/dcmitype/StillImage" />
        <dc:title></dc:title>
      </cc:Work>
    </rdf:RDF>
  </metadata>
  <g
     id="layer1">
    <rect
       width="16"
       height="16"
       rx="2"
       ry="2"
       x="0"
       y="0"
       id="rect3783"
       style="fill:#916f6f;fill-opacity:1;stroke:none" />
    <g
       transform="matrix(0.05727359,0,0,0.05727359,0.546,2.3077561)"
       id="g4"
       style="fill:#f2f2f2">
      <path
         d="m 101.61402,9.0711834 c 0.23286,1.3971586 -0.46572,2.5614566 -2.794319,3.7257556 -3.027176,-1.630018 -9.547247,-2.561457 -14.90302,-2.095738 -5.821493,0.46572 -10.711547,2.328597 -10.012968,6.287212 0.931439,3.958615 6.520072,6.287212 16.533039,5.355773 C 114.88702,20.248449 114.65416,3.7154103 150.51455,0.45537448 178.45772,-2.1060822 194.05932,6.5097267 196.15506,16.988413 c 1.63001,8.15009 -5.12292,16.06732 -25.38171,17.697338 -17.9302,1.630017 -28.40888,-3.260036 -29.34032,-8.15009 -0.46572,-2.561457 0.93144,-6.287212 9.54724,-7.218651 0.93144,3.958615 5.8215,8.15009 17.46448,6.985791 8.38295,-0.698579 15.36874,-3.725755 14.4373,-8.382949 -0.93144,-4.890054 -9.7801,-7.68437 -23.75169,-6.520071 C 130.72148,13.961237 123.73569,29.562837 99.518281,31.658574 82.286663,33.288592 68.315081,27.00138 66.452203,17.686992 65.753624,14.194097 65.753624,6.0440073 83.916681,4.4139894 93.231069,3.7154103 100.68258,5.3454282 101.61402,9.0711834 l 0,0 z M 10.798734,106.40654 c -7.9172295,10.01297 -11.41012501,21.65595 -10.7115459,33.06608 0.6985791,11.41012 6.2872119,20.72451 15.1358809,27.94316 9.314388,7.21865 19.327355,9.31439 30.73748,7.21865 4.424335,-0.69858 9.314388,-3.02718 13.738723,-4.42433 -9.314388,0 -17.231618,-3.02718 -25.148848,-9.31439 -8.615809,-6.28721 -14.437302,-15.13588 -15.83446,-25.84743 -2.095737,-10.01297 0,-19.32735 5.588633,-27.47744 6.287212,-7.917233 14.437301,-12.341567 25.148848,-13.738725 10.711546,-0.698579 20.025934,2.095737 29.340322,8.615805 C 76.69803,99.420748 73.670854,97.32501 70.876537,94.530694 61.562149,88.243482 51.549182,85.216306 39.207618,88.243482 28.030352,90.572079 18.715964,96.393571 10.798734,106.40654 l 0,0 z M 135.61153,52.615948 c -30.0389,0 -56.817763,-3.027177 -76.145118,-7.218651 C 38.741898,40.274383 27.797493,34.685751 27.797493,27.4671 c 0,-3.027176 1.397158,-5.588633 5.588632,-8.615809 -13.040143,5.122913 -20.025934,9.314388 -20.025934,15.83446 0.698579,7.21865 12.341564,14.437301 36.093254,20.025934 22.354531,5.588633 50.996275,8.615809 85.459505,8.615809 35.16182,0 63.10498,-3.027176 85.45952,-8.615809 23.75168,-5.588633 35.16181,-13.040143 35.16181,-20.025934 0,-5.122914 -5.12291,-10.012968 -14.4373,-13.738723 2.09574,1.397158 3.72575,3.725755 3.72575,6.287212 0,7.218651 -10.71154,13.040143 -32.36749,17.930197 -20.02594,4.424334 -45.64051,7.451511 -76.84371,7.451511 l 0,0 z m 85.69237,20.025934 c -22.35453,5.122913 -50.99627,8.615809 -85.45951,8.615809 -35.16181,0 -63.803554,-3.725755 -86.158086,-8.615809 C 29.66037,67.518968 18.948824,61.930336 15.223069,56.108843 c 3.725755,25.148848 12.341564,48.900537 23.751689,69.857907 8.615809,13.04015 17.231618,24.45027 25.847427,36.79184 3.725755,7.21865 6.287212,14.4373 7.91723,21.65595 5.588633,7.91723 13.738722,13.04014 23.75169,15.83446 12.341565,4.42433 25.148845,6.28721 38.188995,5.58863 l 1.39715,0 c 13.04015,0.69858 26.77887,-1.39716 39.35329,-5.58863 9.31439,-3.02718 17.23162,-7.91723 23.05311,-15.83446 l 0.69858,0 c 1.39716,-7.21865 3.72576,-14.4373 7.21865,-21.65595 8.61581,-12.34157 17.23162,-23.75169 25.84743,-36.79184 C 243.65844,105.24224 251.57567,81.490551 256,56.108843 c -4.65719,6.520072 -15.36874,12.108705 -34.6961,16.533039 l 0,0 z"
         id="path6"
         style="fill:#f2f2f2" />
    </g>
  </g>
</svg>
