<?xml version="1.0" encoding="UTF-8" standalone="no"?>
<!-- Created with Inkscape (http://www.inkscape.org/) -->

<svg
   xmlns:dc="http://purl.org/dc/elements/1.1/"
   xmlns:cc="http://creativecommons.org/ns#"
   xmlns:rdf="http://www.w3.org/1999/02/22-rdf-syntax-ns#"
   xmlns:svg="http://www.w3.org/2000/svg"
   xmlns="http://www.w3.org/2000/svg"
   xmlns:sodipodi="http://sodipodi.sourceforge.net/DTD/sodipodi-0.dtd"
   xmlns:inkscape="http://www.inkscape.org/namespaces/inkscape"
   version="1.1"
   width="1000"
   height="1000"
   id="svg3013"
   inkscape:version="0.91 r13725"
   sodipodi:docname="coffeescript.svg">
  <sodipodi:namedview
     pagecolor="#ffffff"
     bordercolor="#666666"
     borderopacity="1"
     objecttolerance="10"
     gridtolerance="10"
     guidetolerance="10"
     inkscape:pageopacity="0"
     inkscape:pageshadow="2"
     inkscape:window-width="1368"
     inkscape:window-height="845"
     id="namedview9"
     showgrid="false"
     units="px"
     width="1000mm"
     inkscape:showpageshadow="false"
     borderlayer="false"
     inkscape:zoom="0.35355339"
     inkscape:cx="455.67879"
     inkscape:cy="500.55772"
     inkscape:window-x="0"
     inkscape:window-y="0"
     inkscape:window-maximized="0"
     inkscape:current-layer="svg3013" />
  <defs
     id="defs3015" />
  <path
     inkscape:connector-curvature="0"
     id="rect3783"
     d="M 125,0 C 55.75,0 0,55.75 0,125 l 0,750 c 0,69.25 55.75,125 125,125 l 750,0 c 69.25,0 125,-55.75 125,-125 l 0,-750 C 1000,55.75 944.25,0 875,0 L 125,0 Z m 483.33789,144.23633 c 77.80129,0.2735 121.37919,27.98973 127.94336,60.81055 5.83478,29.17405 -18.33712,57.51479 -90.85547,63.3496 -64.18293,5.83481 -101.69316,-11.66939 -105.02734,-29.17382 -1.66709,-9.16899 3.33467,-22.50567 34.17578,-25.83985 3.33418,14.17026 20.83842,29.17359 62.51562,25.00586 30.00761,-2.50063 55.01387,-13.33692 51.67969,-30.00781 -3.33418,-17.50443 -35.00879,-27.50757 -85.02148,-23.33984 -101.69241,9.16898 -126.6981,65.01763 -213.38672,72.51953 -61.68229,5.83481 -111.69493,-16.6719 -118.36328,-50.01367 -2.50064,-12.50317 -2.50085,-41.67691 62.51562,-47.51172 33.34178,-2.50064 60.01543,3.33321 63.34961,16.66992 0.83355,5.00127 -1.66845,9.17016 -10.0039,13.33789 -10.83608,-5.83481 -34.17419,-9.16904 -53.34571,-7.50195 -20.83861,1.66709 -38.34438,8.3356 -35.84375,22.50586 3.33418,14.17025 23.33923,22.50605 59.18164,19.17187 87.52217,-7.5019 86.68886,-66.68389 215.05469,-78.35352 12.50317,-1.14612 24.31717,-1.66797 35.43164,-1.6289 z m -454.70312,67.47851 c -15.0038,10.83608 -20.00586,20.00572 -20.00586,30.8418 0,25.83988 39.17587,45.84366 113.36132,64.18164 69.18419,15.0038 165.04309,25.83984 272.57032,25.83984 111.69495,0 203.38351,-10.83453 275.06836,-26.67187 77.51962,-17.50443 115.86328,-38.34372 115.86328,-64.18359 0,-9.16899 -5.83403,-17.5046 -13.33594,-22.50586 33.34178,13.33671 51.67969,30.8417 51.67969,49.17968 0,25.00634 -40.84374,51.67853 -125.86524,71.6836 -80.02029,20.00507 -180.04688,30.8418 -305.91211,30.8418 -123.36455,-10e-6 -225.88989,-10.83673 -305.91015,-30.8418 -85.02154,-20.00507 -126.698588,-45.84372 -129.199221,-71.6836 0,-23.33924 25.007061,-38.34366 71.685551,-56.68164 z M 88.617188,345.08203 c 13.336712,20.83861 51.680412,40.84366 123.365232,59.18164 80.02027,17.50444 182.54497,30.8418 308.41016,30.8418 123.36459,0 225.89185,-12.50382 305.91211,-30.8418 69.1842,-15.83734 107.52639,-35.84239 124.19726,-59.18164 -15.83733,90.85635 -44.17779,175.87706 -85.02148,250.0625 -30.84115,46.67851 -61.68229,87.5233 -92.52344,131.70117 -12.50315,25.83988 -20.83857,51.67966 -25.83984,77.51953 l -2.5,0 c -20.8386,28.34052 -49.1797,45.8436 -82.52149,56.67969 -45.01138,15.00379 -94.19062,22.5065 -140.86914,20.00586 l -5,0 c -46.67851,2.50064 -92.52331,-4.16853 -136.70117,-20.00586 -35.84241,-10.00254 -65.01642,-28.33917 -85.02148,-56.67969 -5.83482,-25.83987 -15.00509,-51.67965 -28.3418,-77.51953 -30.84115,-44.17787 -61.68229,-85.02266 -92.52344,-131.70117 -14.10981,-25.91597 -27.02442,-53.02582 -38.4375,-81.12305 -4.96063,4.6189 -9.65033,9.70016 -14.07617,15.27344 -20.00507,29.17406 -27.505805,62.51696 -20.00391,98.35938 5.00127,38.34305 25.83855,70.01774 56.67969,92.52343 28.34051,22.5057 56.68166,33.3418 90.02344,33.3418 -15.83735,5.00124 -33.34234,13.3353 -49.17969,15.83594 -40.84368,7.50191 -76.68557,3e-5 -110.027342,-25.83985 C 56.942497,717.67575 36.938133,684.33389 34.4375,643.49023 31.936867,602.64654 44.438787,560.96937 72.779297,525.12695 87.834557,506.08647 104.30177,491.28111 122.42969,480.33398 107.15587,437.05626 95.530007,391.74356 88.617188,345.08203 Z"
     style="fill:#916f6f;fill-opacity:1;stroke:none" />
  <metadata
     id="metadata4141">
    <rdf:RDF>
      <cc:Work
         rdf:about="">
        <dc:title></dc:title>
      </cc:Work>
    </rdf:RDF>
  </metadata>
</svg>
