<?xml version="1.0" encoding="UTF-8" standalone="no"?>
<!-- Created with Inkscape (http://www.inkscape.org/) -->

<svg
   xmlns:svg="http://www.w3.org/2000/svg"
   xmlns="http://www.w3.org/2000/svg"
   xmlns:sodipodi="http://sodipodi.sourceforge.net/DTD/sodipodi-0.dtd"
   xmlns:inkscape="http://www.inkscape.org/namespaces/inkscape"
   version="1.1"
   width="1000"
   height="1000"
   id="svg3796"
   inkscape:version="0.91 r13725"
   sodipodi:docname="ecmascript.svg">
  <sodipodi:namedview
     pagecolor="#ffffff"
     bordercolor="#666666"
     borderopacity="1"
     objecttolerance="10"
     gridtolerance="10"
     guidetolerance="10"
     inkscape:pageopacity="0"
     inkscape:pageshadow="2"
     inkscape:window-width="1445"
     inkscape:window-height="810"
     id="namedview11"
     showgrid="false"
     inkscape:zoom="0.24211811"
     inkscape:cx="-430.63192"
     inkscape:cy="327.72986"
     inkscape:window-x="35"
     inkscape:window-y="61"
     inkscape:window-maximized="0"
     inkscape:current-layer="svg3796"
     inkscape:showpageshadow="false" />
  <defs
     id="defs3798" />
  <path
     style="fill:#2a7fff;fill-opacity:1;stroke:none"
     d="M 125,0 C 55.75,0 0,55.75 0,125 l 0,750 c 0,69.25 55.75,125 125,125 l 750,0 c 69.25,0 125,-55.75 125,-125 l 0,-750 C 1000,55.75 944.25,0 875,0 L 125,0 Z m 625.61038,170.77625 c 29.24506,0 58.99624,2.64375 89.35543,7.93437 30.35913,5.29376 61.50994,13.22001 93.26175,23.80375 l 0,82.27563 C 901.19725,269.47125 870.93881,258.13062 842.52931,250.61063 814.11981,243.09 786.71369,239.2575 760.25388,239.2575 c -45.9565,0 -81.50019,8.90813 -106.56738,26.73375 -24.78863,17.825 -37.23142,43.18438 -37.23142,76.05 0,27.57313 8.22528,48.53937 24.65817,62.74375 16.71156,13.92625 48.24744,25.17938 94.48244,33.81375 l 50.90331,10.37563 c 62.9465,11.97687 109.35806,33.24 139.16019,63.59875 30.08062,30.08062 45.166,70.40312 45.166,121.09375 0,60.43875 -20.37056,106.25687 -61.03513,137.45125 -40.386,31.19437 -99.71318,46.75312 -177.97856,46.75312 -29.52356,0 -61.0595,-3.325 -94.48237,-10.01 -33.14442,-6.68437 -67.49833,-16.5725 -103.14944,-29.66312 l 0,-86.91375 c 34.25849,19.2175 67.84215,33.70875 100.708,43.45687 32.86594,9.74812 65.17206,14.64812 96.92381,14.64812 48.18475,0 85.391,-9.5025 111.57231,-28.44187 26.18125,-18.93937 39.18457,-45.83938 39.18457,-80.93313 0,-30.63687 -9.38069,-54.63062 -28.32032,-71.89937 -18.66112,-17.26813 -49.5145,-30.18375 -92.40725,-38.81813 L 710.44925,519.165 c -62.9465,-12.53312 -108.46576,-32.1 -136.59671,-58.83813 -28.13096,-26.7375 -42.11426,-63.94499 -42.11426,-111.57187 0,-55.14688 19.26851,-98.62 57.9834,-130.37125 38.99345,-31.75125 92.65026,-47.6075 160.8887,-47.6075 z M 85.32715,175.17 l 402.9541,0 0,72.51 -316.77246,0 0,188.72063 303.58887,0 0,72.51 -303.58887,0 0,230.95687 324.46289,0 0,72.63187 -410.64453,0 0,-637.32937 z"
     id="rect3783"
     inkscape:connector-curvature="0" />
</svg>
