<?xml version="1.0" encoding="UTF-8" standalone="no"?>
<!-- Created with Inkscape (http://www.inkscape.org/) -->

<svg
   xmlns:dc="http://purl.org/dc/elements/1.1/"
   xmlns:cc="http://creativecommons.org/ns#"
   xmlns:rdf="http://www.w3.org/1999/02/22-rdf-syntax-ns#"
   xmlns:svg="http://www.w3.org/2000/svg"
   xmlns="http://www.w3.org/2000/svg"
   xmlns:sodipodi="http://sodipodi.sourceforge.net/DTD/sodipodi-0.dtd"
   xmlns:inkscape="http://www.inkscape.org/namespaces/inkscape"
   width="16px"
   height="16px"
   id="svg3013"
   version="1.1"
   inkscape:version="0.48.5 r10040"
   sodipodi:docname="stylus.svg">
  <defs
     id="defs3015" />
  <sodipodi:namedview
     id="base"
     pagecolor="#ffffff"
     bordercolor="#666666"
     borderopacity="1.0"
     inkscape:pageopacity="0.0"
     inkscape:pageshadow="2"
     inkscape:zoom="7.8481082"
     inkscape:cx="-10.860742"
     inkscape:cy="1.8689048"
     inkscape:current-layer="layer1"
     showgrid="true"
     inkscape:grid-bbox="true"
     inkscape:document-units="px"
     inkscape:window-width="1360"
     inkscape:window-height="720"
     inkscape:window-x="0"
     inkscape:window-y="29"
     inkscape:window-maximized="1" />
  <metadata
     id="metadata3018">
    <rdf:RDF>
      <cc:Work
         rdf:about="">
        <dc:format>image/svg+xml</dc:format>
        <dc:type
           rdf:resource="http://purl.org/dc/dcmitype/StillImage" />
        <dc:title></dc:title>
      </cc:Work>
    </rdf:RDF>
  </metadata>
  <g
     id="layer1"
     inkscape:label="Layer 1"
     inkscape:groupmode="layer">
    <rect
       style="fill:#d40000;fill-opacity:1;stroke:none"
       id="rect3783"
       width="16"
       height="16"
       x="0"
       y="0"
       rx="2"
       ry="2" />
    <g
       id="g4"
       transform="matrix(0.10521519,0,0,0.10521519,-104.63486,151.91958)"
       style="fill:#f9f9f9">
      <path
         style="fill:#f9f9f9"
         inkscape:connector-curvature="0"
         d="m 1102.8397,-1361.8877 c 0.572,0.572 0.6241,1.5081 -0.052,1.9761 -1.6641,1.0921 -3.7962,0.9361 -5.7724,0.7281 -3.3282,-0.364 -7.2804,-0.52 -8.9965,-3.6402 -0.052,0 -0.052,-0.052 -0.1041,-0.1041 -2.1841,-1.196 1.5082,-2.0281 2.5482,-2.1841 2.3402,-0.312 4.8363,0.312 7.1245,0.8321 1.9241,0.364 3.7442,0.884 5.2523,2.3921 l 0,0 0,0 z m 30.37,49.6112 c -1.5601,1.0921 -0.8841,2.9642 -1.9762,4.2642 -1.092,1.2482 -3.7442,1.2482 -5.1483,1.2482 -5.9804,0.052 -11.8048,-0.4161 -17.6811,0.052 -1.5081,0.1041 -2.8602,0.3121 -4.2643,0.6761 -0.4161,0.104 -1.0921,0.364 -1.5601,0.104 -1.1961,-0.624 -2.2882,-2.6002 -3.8482,-1.9761 -1.3001,0.572 -2.2882,2.4441 -3.8483,1.3001 -2.8602,-2.1322 -5.2523,-0.2081 -8.2685,0.364 -3.1202,0.624 -6.0844,-1.0921 -9.1526,-0.26 -2.2882,0.676 -4.4723,1.3521 -6.8124,0.572 -2.3402,-0.832 -2.9642,-2.6521 -0.9361,-4.3683 3.2242,-2.6522 7.2285,-3.0682 11.2327,-2.7561 6.0844,0.52 12.1168,0.052 18.2012,-0.2601 0.208,0 0.312,0.1041 0.312,0.2601 2.6002,1.04 4.2642,-1.0401 5.7723,-2.8603 0.2081,-0.2599 0.5721,-0.1039 0.6761,0.052 2.1842,3.2242 4.8363,-0.4161 7.5925,-0.104 0.7281,0.052 1.4041,0.26 1.8721,0.936 0.208,0.312 0.26,0.6761 0.26,1.0401 0.104,1.6641 2.2362,1.3001 2.1842,-0.364 0,-0.2601 0.312,-0.5201 0.572,-0.4161 2.1841,0.8841 4.9923,2.0282 6.7604,-0.26 1.5081,-1.9241 1.7162,-4.6803 1.8722,-7.0204 0.312,-6.2924 -0.104,-12.7408 -0.5721,-18.9812 -0.364,-6.0845 -1.04,-12.2728 -0.312,-18.3572 0.7281,-6.0324 0.676,-11.9088 0.5721,-17.9932 -0.052,-3.1722 -0.2081,-6.3444 0,-9.5166 0.1039,-2.9122 0.624,-6.0324 0.312,-8.9445 -0.312,-2.6002 -1.8722,-4.8364 -2.1842,-7.3845 -0.312,-2.3402 0,-4.7843 0.5721,-7.0725 0.312,-1.4041 1.04,-3.1202 0.988,-4.5763 -0.052,-1.248 -0.104,-2.5481 -0.052,-3.7963 0,-0.624 -0.104,-1.612 0.3641,-2.1321 0.728,-0.884 1.092,-2.1841 -0.6241,-2.3401 -4.1082,-0.52 -8.3205,-3.1202 -12.2208,-0.572 0.052,0.884 0.104,1.8721 -0.104,2.7561 l 0.5721,0.7281 c 0.988,0.416 1.9761,0.572 3.0681,0.624 1.2481,0 2.6002,-0.312 3.8483,-0.208 1.0401,0.104 1.9241,1.0401 1.5601,2.2362 -0.26,0.884 -1.0401,1.6121 -1.5081,2.3401 -0.832,1.3001 -0.676,3.1722 -0.676,4.6803 -0.052,3.7962 0,7.5925 0.1039,11.2847 0.1041,3.1202 0.4161,6.2924 0.6241,9.4126 0.052,0.052 0.26,0.104 0.26,0.26 0.104,3.5363 1.3001,7.0205 1.3521,10.5567 0.052,0.052 -0.9361,4.3683 -0.9361,4.3683 -0.052,4.5763 -0.416,13.0528 -0.416,13.0528 -0.052,7.8005 -1.4041,15.549 -0.052,23.2975 0.5721,3.1202 -0.624,6.1364 -0.728,9.2566 -0.1041,3.4322 0.312,6.8125 -0.208,10.2447 0.052,0.208 0,0.416 -0.2601,0.52 -7.1244,1.3521 -14.3529,1.6121 -21.6333,1.1961 -1.8202,-0.104 -3.9523,-0.26 -5.7204,0.416 -0.6761,0.312 -1.6121,0.7281 -2.4442,0.6761 -1.0401,-0.1041 -1.5601,-0.9361 -2.5481,-1.0921 -1.2481,-0.26 -2.4442,-0.52 -3.6403,-0.6241 -3.2242,-0.416 -6.2924,-0.624 -9.3086,0.6761 -1.6641,0.7281 -3.4322,0.416 -5.0963,-0.26 -1.9761,-0.8321 -3.4842,-1.8201 -5.6684,-0.7281 -0.884,0.4161 -1.6641,0.8841 -2.6521,1.0921 -0.8321,0.208 -1.5601,0 -2.2882,-0.312 -1.6641,-0.6241 -2.9642,-0.8321 -4.7323,-0.5201 0.208,0.2601 0.052,0.7281 -0.3121,0.7281 -10.5566,-0.572 -21.1653,0.676 -31.722,0.832 -0.52,0.104 -0.884,0.6761 -1.1961,0.6761 l -0.312,0 c -0.26,0 -0.312,-0.8841 -0.26,-1.0401 -1.4041,-1.5601 -1.0401,-6.7084 -0.9881,-8.2165 0.4161,-9.8286 -0.832,-19.7093 -1.092,-29.4859 -0.104,-4.8883 -0.104,-9.8286 0.676,-14.6649 0.9361,-5.4604 0.9361,-10.7647 0.8321,-16.2251 -0.26,-10.8687 0.832,-21.6854 0.52,-32.5541 0,-0.208 0.208,-0.26 0.312,-0.208 l 0.104,-0.052 c 2.9122,-0.26 6.0844,-1.0401 8.9446,-0.26 0.052,0 0.104,0.052 0.104,0.104 l 0.416,0.052 3.2242,0 c 0.1041,0 0.2601,0.052 0.2601,0.104 5.7203,0.052 11.4407,-0.416 17.1611,-0.6761 1.9761,-0.052 4.0563,0 6.0324,-0.624 0.9881,-0.312 2.1841,-0.832 3.2242,-0.728 2.6001,0.208 5.2523,0.988 7.8005,1.5601 1.8201,0.364 3.0682,-2.7562 4.6803,-1.6641 2.4442,1.5601 5.2523,0.988 8.0605,1.0401 1.5081,0.052 2.9122,-0.2601 4.4203,-0.2601 0.8321,0 1.5081,0.208 2.2361,0.364 0.7281,-0.1039 1.3521,-0.052 2.1842,0.2601 l 13.3128,-0.4161 c 2.6522,0.052 5.5644,0.2601 8.1126,-0.728 0.676,-0.26 1.04,-0.6241 1.248,-1.0401 -0.104,-0.208 -0.208,-0.416 -0.312,-0.676 -0.208,-0.364 -0.416,-0.8321 -0.676,-1.0921 -2.8602,-0.9361 -6.1364,-0.676 -9.1526,-0.832 -4.1083,-0.208 -8.1125,0.364 -12.2208,0.676 -3.7962,0.312 -7.7485,0.572 -11.5447,0.26 -2.2362,-0.208 -6.4485,-1.1961 -8.3726,0.3641 -0.208,0.1039 -0.364,0.1039 -0.572,0 -3.6403,-2.9642 -8.4246,1.508 -12.5848,0.26 -2.4962,-0.7281 -4.8364,-1.2481 -7.4885,-0.9361 -2.5482,0.26 -5.0444,0.624 -7.6445,0.624 -5.6684,-0.052 -11.2848,0.3121 -16.9531,0.104 -1.2481,-0.052 -2.4442,-0.052 -3.5882,-0.208 -0.9881,-0.104 -2.2882,-0.624 -3.2763,-0.208 -1.5601,0.5721 -1.8721,1.0921 -1.7161,1.5601 0.4161,0.312 -1.04,2.2882 -1.04,3.2762 l -0.104,2.6002 c -0.052,3.8482 -0.3121,7.3845 -1.1961,11.1287 -0.416,1.9761 -1.4041,4.7843 -0.6761,6.7604 0.4161,1.3001 1.4041,2.1842 1.9762,3.3282 0.988,2.1322 1.04,4.7324 0.936,7.0205 l -0.624,22.3614 c -0.26,7.4365 -0.7281,14.925 -0.416,22.4135 0.26,6.9164 1.352,13.9889 0.416,20.8533 -0.312,2.2882 -3.0682,6.3444 -0.416,7.9565 1.5081,0.8841 3.2762,1.0921 4.9923,1.2481 4.2123,0.26 8.4245,-0.208 12.6888,-0.676 1.5601,-0.2081 3.1202,-0.5201 4.6803,-0.5201 1.1961,-0.052 2.2881,0.104 3.4322,0.5201 0.9881,0.364 2.4962,1.04 3.6402,1.04 0.052,0.052 1.8722,-0.052 1.9762,-0.572 1.5601,-0.6761 2.9122,-1.1961 4.8883,-0.8321 1.9241,0.3641 3.6403,0.6241 5.6684,0.2601 1.04,-0.208 2.6002,-0.3121 3.6402,-0.052 l 0.4161,0.312 c 0.416,-0.2081 -0.2601,0.52 -0.6761,0.676 -2.3402,0.9361 -1.6121,3.9523 -1.8721,5.9804 0,0.208 -0.26,0.26 -0.364,0.26 -0.9361,0 -2.2362,0 -2.7562,-0.9881 -1.0921,-2.0281 -3.7443,-3.4322 -3.7443,0.8321 0,0.26 -0.208,0.364 -0.364,0.364 -0.208,0 -0.364,-0.104 -0.364,-0.364 0,-0.26 -2.7562,-1.7161 -3.0682,-1.8721 -1.3521,-0.728 -2.9122,-1.6121 -4.5243,-1.0401 -0.9881,0.3121 -1.8202,0.8841 -2.7562,1.3001 -1.6641,2.0281 -3.4322,4.2123 -5.8764,2.9122 -0.52,-0.26 -2.5481,-2.0281 -2.9642,-1.6641 -0.572,0.624 -1.196,1.2481 -1.9761,1.5601 -2.2361,0.884 -4.5763,0.728 -6.9684,0.676 -0.1041,0 -0.3641,-0.104 -0.3641,-0.312 -0.104,-0.9361 -0.624,-2.8082 -1.9241,-1.6641 -0.312,0.26 -0.572,0.52 -0.884,0.8321 -0.3641,0.312 -0.8321,0.728 -1.3001,0.936 -1.5601,0.624 -6.3444,-0.208 -6.9685,-1.3001 -0.52,-0.832 -0.676,-1.6641 -0.884,-2.6001 -0.3641,-2.2882 -0.104,-4.7843 -0.208,-7.1245 -0.2081,-5.8764 -0.6241,-11.6487 -1.0921,-17.5251 -0.26,-2.9642 -0.52,-6.0324 -0.26,-9.0486 0.104,-1.9241 0.208,-4.5763 1.196,-6.3444 0.8321,-1.4041 0.2601,-2.5482 -0.832,-3.5882 -0.26,-0.3121 -0.364,-0.8841 -0.364,-1.2481 -0.208,-2.1842 0.208,-4.4723 0.312,-6.6564 0.104,-1.6121 0.364,-3.2242 0.364,-4.8364 0,-1.248 -0.26,-2.4441 -0.364,-3.6402 -0.052,-0.624 -0.104,-1.2481 0.26,-1.8201 0.728,-1.04 0.624,-1.6121 0.208,-2.8082 -0.832,-2.2881 0,-5.0443 0.104,-7.4364 0.208,-2.8082 0.312,-5.5644 0,-8.4246 -0.312,-3.1202 -0.936,-6.1364 -0.728,-9.3086 0.208,-2.8602 0.364,-5.4604 0.52,-8.2685 0.26,-5.0964 0.26,-10.2447 0.104,-15.341 l 0,1.1961 c 0,0 -0.416,-6.5005 2.2882,-8.0605 4.1602,-2.2882 9.2046,-1.9242 13.7288,-2.1322 5.8764,-0.26 11.8048,0.312 17.6812,0.312 3.4322,0 6.8124,-0.052 10.1406,-0.832 2.3402,-0.5201 4.6804,-0.7281 7.0725,-0.624 2.9122,0.208 5.7204,0.936 8.5806,1.196 2.8602,0.26 5.6683,0.104 8.5285,-0.052 6.1884,-0.416 12.4288,-0.26 18.6172,0 l 9.6726,0.416 c 1.5081,0.052 3.2242,0.4161 4.6803,0.052 l 2.7562,-0.936 c 2.0281,-0.5721 3.4322,-0.052 5.4084,0.416 l 7.2804,1.7161 c 0.8321,-0.208 1.6122,-0.26 2.2362,0.364 1.3521,1.2481 0.052,2.8082 1.0401,4.2123 1.196,1.6641 2.2881,2.7562 2.5481,4.8883 0.26,2.2882 0.364,4.7843 -0.364,7.0205 -0.5201,1.5081 -1.1961,3.1202 -0.572,4.7323 0.364,0.988 1.04,1.9241 1.3,2.9642 0.5201,2.2361 0.5201,4.4723 0.3641,6.7604 -0.1041,2.6002 -0.2601,5.2523 -0.5721,7.8005 -0.208,1.6641 -0.884,3.2762 -0.936,4.8883 -0.052,1.3521 0.364,2.4962 0.624,3.7962 0.8841,4.2643 -2.8602,6.9685 -3.5362,10.8687 -0.364,2.1322 2.0281,1.1961 3.1202,2.4442 0.676,0.8321 0.312,2.1841 0.26,3.0682 -0.26,2.2882 0.416,4.5243 0.312,6.8125 -0.104,2.8601 -0.9881,5.2003 -0.312,8.0605 0.364,1.6121 0.676,3.2242 0.312,4.8363 -0.364,1.6121 -2.2361,5.6683 0.26,6.3964 0.104,0 0.208,0.104 0.208,0.26 0,0.7281 -0.104,1.2481 -0.416,1.9241 -1.0921,2.4962 0.624,1.9761 0.936,3.5883 0.3121,1.508 -0.572,2.0281 -0.832,3.4322 -0.364,2.2361 0.832,3.9522 0.7281,6.1364 -0.052,2.0281 -1.1961,3.1722 -0.8321,5.0443 0.104,0 0.26,0.104 0.26,0.26 0.208,0.9881 0.312,2.1321 -0.052,3.1202 -0.52,1.4041 -1.0921,1.8201 0.52,2.6522 0.4161,-0.3121 0.4161,0.052 0.1561,0.208 l 0,0 0,0 z m -27.1978,-69.0084 c -0.9881,-6.0844 -1.5601,-12.4288 -3.5882,-18.2532 -0.8841,-2.4442 -1.3001,-5.0963 -4.1603,-5.5644 -3.7442,-0.624 -2.4961,2.4962 -1.9761,5.4604 0.728,4.5763 1.0401,9.2566 2.2362,13.7809 0.832,3.1202 2.3401,6.8124 -1.8202,4.4203 -6.9684,-4.2123 -9.3606,-13.4169 -12.1687,-20.2813 -1.2482,-3.1203 -4.8884,-10.5567 -7.3845,-12.4288 -1.1961,-0.8841 -7.0725,-2.1842 -8.2166,-1.4041 -2.4441,1.6641 5.0963,13.3648 6.1364,15.445 2.2882,4.6802 4.7323,9.3085 7.6965,13.5208 2.1322,2.9642 5.4604,5.7204 0.7281,7.4885 -4.8883,1.8721 -7.2805,-0.884 -10.6087,-3.4322 -2.6522,-1.9761 -6.0324,-2.2882 -9.3606,-2.6522 -9.1527,-1.092 -17.8372,-0.052 -25.1697,6.0324 -3.5362,2.9642 -5.7724,7.0204 -7.6445,11.1807 -0.52,1.0401 -3.5362,10.2447 -3.1202,10.2967 -1.8721,-0.3121 -0.728,-4.6803 -3.1202,-2.1322 -2.1321,2.2362 0.6241,8.6846 1.5601,10.9207 2.1322,4.9924 4.3683,9.8807 6.0324,15.081 1.6641,5.2003 2.0282,5.0964 6.8125,5.5123 6.0843,0.5721 12.0647,-1.3 18.0452,-2.0281 0,0 -10.6088,-6.6044 10.3486,0.6241 4.6803,1.6121 9.6206,1.1961 14.5089,1.3521 3.4843,-0.8321 3.5883,-6.8125 5.4084,-9.6206 0.676,-1.0401 4.0563,-6.3445 5.0964,-6.7605 1.508,-0.572 3.6402,0.9881 5.1483,1.1961 8.7365,1.3521 11.4407,-5.8244 10.0366,-12.8448 -1.1961,-6.1364 -0.52,-13.0009 0.364,-17.7332 0.364,-1.7681 -1.5081,-5.5643 -1.8201,-7.1764 l 0,0 0,0 z m -39.0545,74.6768 c -0.936,-0.8841 -2.3401,-1.0921 -3.2762,-2.0282 -0.5201,-0.572 -0.6761,-1.092 -0.572,-1.7161 0,0 -0.052,0 -0.052,-0.052 -0.6761,-1.2481 0.884,-2.2881 1.9761,-1.8721 0.572,0.26 1.4041,0.624 1.5081,1.3001 0.052,0.884 -0.52,1.5081 -0.676,2.2881 0.624,0.364 1.248,1.2481 1.56,1.6641 0.208,0.364 -0.208,0.6761 -0.468,0.4161 l 0,0 0,0 z"
         id="path8" />
    </g>
  </g>
</svg>
