<?xml version="1.0" encoding="UTF-8" standalone="no"?>
<!-- Created with Inkscape (http://www.inkscape.org/) -->

<svg
   xmlns:dc="http://purl.org/dc/elements/1.1/"
   xmlns:cc="http://creativecommons.org/ns#"
   xmlns:rdf="http://www.w3.org/1999/02/22-rdf-syntax-ns#"
   xmlns:svg="http://www.w3.org/2000/svg"
   xmlns="http://www.w3.org/2000/svg"
   xmlns:sodipodi="http://sodipodi.sourceforge.net/DTD/sodipodi-0.dtd"
   xmlns:inkscape="http://www.inkscape.org/namespaces/inkscape"
   version="1.1"
   width="1000"
   height="1000"
   id="svg3796"
   inkscape:version="0.91 r13725"
   sodipodi:docname="javascript.svg">
  <sodipodi:namedview
     pagecolor="#ffffff"
     bordercolor="#666666"
     borderopacity="1"
     objecttolerance="10"
     gridtolerance="10"
     guidetolerance="10"
     inkscape:pageopacity="0"
     inkscape:pageshadow="2"
     inkscape:window-width="1229"
     inkscape:window-height="771"
     id="namedview11"
     showgrid="false"
     borderlayer="true"
     inkscape:showpageshadow="false"
     inkscape:zoom="0.25747681"
     inkscape:cx="149.34788"
     inkscape:cy="326.93275"
     inkscape:window-x="0"
     inkscape:window-y="0"
     inkscape:window-maximized="0"
     inkscape:current-layer="svg3796" />
  <defs
     id="defs3798" />
  <metadata
     id="metadata3801" />
  <rdf:RDF>
    <cc:Work
       rdf:about="">
      <dc:format>image/svg+xml</dc:format>
      <dc:type
         rdf:resource="http://purl.org/dc/dcmitype/StillImage" />
      <dc:title></dc:title>
      <cc:license
         rdf:resource="http://creativecommons.org/licenses/by/3.0/" />
      <dc:creator>
        <cc:Agent>
          <dc:title>Yufi &lt;yufi@hotmail.com&gt;</dc:title>
        </cc:Agent>
      </dc:creator>
    </cc:Work>
    <cc:License
       rdf:about="http://creativecommons.org/licenses/by/3.0/">
      <cc:permits
         rdf:resource="http://creativecommons.org/ns#Reproduction" />
      <cc:permits
         rdf:resource="http://creativecommons.org/ns#Distribution" />
      <cc:requires
         rdf:resource="http://creativecommons.org/ns#Notice" />
      <cc:requires
         rdf:resource="http://creativecommons.org/ns#Attribution" />
      <cc:permits
         rdf:resource="http://creativecommons.org/ns#DerivativeWorks" />
    </cc:License>
  </rdf:RDF>
  <path
     style="fill:#d4aa00;fill-opacity:1;stroke:none"
     d="M 125,0 C 55.75,0 0,55.75 0,125 l 0,750 c 0,69.25 55.75,125 125,125 l 750,0 c 69.25,0 125,-55.75 125,-125 l 0,-750 C 1000,55.75 944.25,0 875,0 L 125,0 Z m 156.61621,48.828125 95.21485,0 0,654.784995 c 0,84.86438 -16.20989,146.46875 -48.58399,184.81438 -32.05978,38.34625 -83.68057,57.6175 -155.02929,57.6175 l -36.37696,0 0,-80.2 29.78516,0 c 42.11775,0 71.82419,-11.8275 89.11133,-35.40063 17.28713,-23.57312 25.8789,-65.85499 25.8789,-126.83125 l 0,-654.784995 z M 738.15919,295.77625 c 29.24506,0 58.99631,2.64375 89.35543,7.93437 30.35913,5.29376 61.38782,13.22001 93.13969,23.80375 l 0,82.27563 C 888.62394,394.47125 858.48756,383.13062 830.07812,375.61063 801.66863,368.09 774.14044,364.2575 747.68069,364.2575 c -45.95657,0 -81.37819,8.90813 -106.44532,26.73375 -24.7887,17.825 -37.23146,43.18438 -37.23146,76.05 0,27.57313 8.22526,48.53937 24.65821,62.74375 16.71144,13.92625 48.12532,25.17938 94.36032,33.81375 l 51.02543,10.37563 c 62.9465,11.97687 109.358,33.24 139.16013,63.59875 30.08062,30.08 45.04394,70.40312 45.04394,121.09375 0,60.43875 -20.2485,106.25687 -60.91307,137.45125 -40.38606,31.19437 -99.71312,46.75312 -177.9785,46.75312 -29.52356,0 -61.0595,-3.325 -94.48244,-10.01 -33.1444,-6.68437 -67.4983,-16.5725 -103.14942,-29.66312 l 0,-86.91375 c 34.2585,19.2175 67.84214,33.70875 100.70801,43.45687 32.86585,9.74812 65.1721,14.64812 96.92385,14.64812 48.18469,0 85.26882,-9.5025 111.45019,-28.44187 26.18125,-18.93937 39.30663,-45.83938 39.30663,-80.93313 0,-30.63687 -9.50269,-54.63062 -28.44238,-71.89937 -18.66112,-17.26813 -49.39244,-30.18375 -92.28519,-38.81813 L 697.99806,644.165 c -62.9465,-12.53312 -108.46574,-32.1 -136.59669,-58.83813 -28.13096,-26.7375 -42.23633,-63.94499 -42.23633,-111.57187 0,-55.14688 19.39058,-98.62 58.10547,-130.37125 38.99341,-31.75125 92.65024,-47.6075 160.88868,-47.6075 z"
     id="rect3783"
     inkscape:connector-curvature="0" />
</svg>
