<?xml version="1.0" encoding="UTF-8" standalone="no"?>
<!-- Created with Inkscape (http://www.inkscape.org/) -->

<svg
   xmlns:dc="http://purl.org/dc/elements/1.1/"
   xmlns:cc="http://creativecommons.org/ns#"
   xmlns:rdf="http://www.w3.org/1999/02/22-rdf-syntax-ns#"
   xmlns:svg="http://www.w3.org/2000/svg"
   xmlns="http://www.w3.org/2000/svg"
   version="1.1"
   width="16"
   height="16"
   id="svg3013">
  <defs
     id="defs3015" />
  <metadata
     id="metadata3018">
    <rdf:RDF>
      <cc:Work
         rdf:about="">
        <dc:format>image/svg+xml</dc:format>
        <dc:type
           rdf:resource="http://purl.org/dc/dcmitype/StillImage" />
        <dc:title></dc:title>
      </cc:Work>
    </rdf:RDF>
  </metadata>
  <g
     id="layer1">
    <rect
       width="16"
       height="16"
       rx="2"
       ry="2"
       x="0"
       y="0"
       id="rect3783"
       style="fill:#c83737;fill-opacity:1;stroke:none" />
    <g
       transform="matrix(0.05414773,0,0,0.05414773,1.1343644,1.2022732)"
       id="g4"
       style="fill:#f2f2f2">
      <path
         d="m 255.90159,121.09734 c -0.086,-3.284 -0.259,-6.654 -0.432,-9.938 -0.173,-3.371 -0.259,-6.741 -0.605,-10.111 -0.605,-4.580997 -1.21,-9.246996 -2.247,-13.740996 -0.778,-3.716001 -2.074,-7.259 -3.37,-10.802001 -1.642,-4.149 -3.284,-8.383 -5.358,-12.357999 -3.371,-6.395 -7.778,-12.099 -11.84,-18.062001 -2.679,-3.802999 -6.135,-6.914 -8.728,-10.802 -1.469,-2.247 -3.63,-4.149 -5.79,-5.877 -3.457,-2.764999 -7.087,-5.272 -10.716,-7.691 -2.766,-1.902 -5.531,-3.716 -8.469,-5.358 -2.334,-1.296999 -4.84,-2.334 -7.26,-3.456999 -2.765,-1.297001 -5.444,-2.852 -8.555,-3.4570005 -0.778,-0.173 -1.469,-0.432 -2.247,-0.691 -1.988,-0.692 -3.889,-1.469 -5.877,-2.074 -3.024,-0.951 -5.962,-2.075 -9.074,-2.852 -3.024,-0.778 -6.135,-1.297 -9.246,-1.729 -3.457,-0.518 -7,-0.691 -10.457,-1.037 -2.247,-0.25899997 -4.494,-0.51799997 -6.655,-0.60499997 -3.283,-0.172 -6.654,-0.172 -9.938,-0.259 -1.642,-0.086 -3.37,-0.259 -5.012,-0.173 -2.506,0.087 -5.012,0.346 -7.519,0.692 -2.419,0.259 -4.839,0.69099997 -7.173,1.03699997 -2.851,0.345 -5.703,0.518 -8.555,0.864 -2.679004,0.346 -5.444004,0.864 -8.123004,1.296 -0.951,0.173 -1.902,0.519 -2.852,0.691 -2.074,0.433 -4.235,0.606 -6.309,1.297 -3.716,1.123 -7.432,2.42 -11.062,3.802 -3.37,1.3830005 -6.654,2.8520005 -9.851,4.5810005 -3.284,1.813999 -6.395,3.974999 -9.507,6.048999 -2.938,1.987 -5.876,4.062001 -8.728,6.309001 -2.765,2.16 -5.358,4.579999 -7.864,6.999999 -1.383,1.382001 -2.506,3.024 -3.803,4.580001 -2.16,2.506 -4.321,4.925999 -6.395,7.517999 -1.728,2.161 -3.284,4.408 -4.925,6.655 -2.939,3.975 -5.445,8.209 -7.778,12.444 -0.951,1.728001 -1.815,3.457001 -2.679,5.185 -1.2969998,2.593 -2.6789998,5.099 -3.8889998,7.778001 -0.864,1.814999 -1.556,3.801999 -2.074,5.789999 -1.21,4.234001 -2.42,8.555 -3.543,12.79 -1.03700004,3.801997 -1.29700004,7.777997 -1.38300004,11.666997 -0.087,3.456 0.25899999,6.827 0.60499999,10.284 0.086,0.864 -0.43199999,1.901 0.60500005,2.592 0.086,0 0,0.346 -0.087,0.432 -0.25900004,0.519 0,1.037 0.519,1.21 0,0 0.086,0.087 0.086,0.173 l -0.432,0 c -0.259,0.778 0.605,1.383 0.259,2.247 -0.086,0.173 0.26,0.518 0.432,0.778 0,0.259 -0.086,0.605 0,0.864 0.087,0.778 0.433,1.555 0.433,2.42 0,0.605 0.518,1.296 0.691,1.901 0.086,0.259 0,0.691 -0.173,0.864 -0.518,0.605 -0.432,1.124 0.346,1.469 0.173,0.087 0.432,0.432 0.432,0.605 0,0.519 -0.173,1.037 -0.259,1.556 0.172,0.173 0.259,0.345 0.172,0.518 0,0.259 -0.259,0.519 -0.172,0.692 0.691,1.382 0.95,2.938 1.037,4.493 0,0.346 0.173,0.692 0.345,1.124 0.087,0 0.346,0 0.519,0.086 l -0.519,1.556 c 0.432,-0.26 0.778,-0.346 1.21,-0.519 0.259,1.124 0.519,2.161 0.864,3.111 0.087,0.173 0.26,0.346 0.519,0.519 -0.087,0.173 -0.087,0.518 -0.259,0.605 0.345,1.555 0.518,3.025 1.123,4.494 0.087,0 0.173,-0.087 0.259,-0.087 -0.259,-1.555 -0.432,-3.197 -0.691,-4.753 l 0,-0.518 c 0,0 0.173,-0.087 0.259,-0.087 0.087,0.346 0.26,0.778 0.26,1.037 0.691,0 1.7279998,0.432 2.4189998,0.432 0.087,-0.259 0.173,-0.605 0.26,-0.777 -0.519,-0.519 -0.951,-1.297 -1.4699998,-1.815 0.173,0.691 0,0.95 0,1.21 -0.345,-0.173 -0.777,-0.346 -1.209,-0.519 0.345,-0.432 0.691,-0.864 1.209,-1.383 0,-0.777 -0.432,-1.469 -1.642,-1.382 0.519,-0.173 1.038,-0.432 1.642,-0.605 0.087,0.259 0.173,0.518 0.26,0.691 0.6909998,-1.21 -0.346,-2.16 -0.346,-3.37 0.086,-1.469 -0.778,-2.938 -1.037,-4.494 -0.432,-2.42 -0.346,-6.049 -0.605,-8.469 0,-0.173 -0.259,-0.346 -0.432,-0.519 -0.087,0.087 -0.519,1.21 -0.605,1.297 0.259,2.074 0.518,4.148 0.691,6.222 -0.086,0 -0.173,0 -0.173,0.086 -0.345,-1.815 -0.691,-3.716 -1.123,-5.79 -0.086,0.605 -0.173,0.864 -0.173,1.21 -0.259,-0.086 -0.345,-0.173 -0.778,-0.346 0.346,0.778 0.692,1.297 0.951,1.902 -0.605,-0.26 -1.296,-0.173 -1.296,-0.173 l 0,2.419 c -0.864,-0.864 -1.124,-1.555 -1.556,-2.16 -0.173,-0.691 -0.259,-1.383 -0.432,-2.074 l 0.259,-0.087 c -0.086,-0.345 -0.259,-0.605 -0.259,-0.864 -0.086,-0.605 -0.173,-1.296 -0.259,-2.074 0.086,-0.086 0.432,-0.173 0.605,-0.345 l -0.692,-1.037 c 0.692,0.086 1.124,0.172 1.556,0.172 0,-0.172 0.086,-0.259 0,-0.345 -0.864,-0.778 -0.259,-1.47 0.086,-2.161 0.173,-0.346 0.778,-0.432 0.951,-0.778 0.691,-1.296 1.815,-2.333 1.815,-3.975 0,-0.778 0.259,-1.642 0.345,-2.42 0.173,-1.469 0.346,-2.938 0.433,-4.407 0.172,-1.901 0,-3.803 0.432,-5.617 0.691,-3.025 1.555,-6.049996 2.5059998,-9.073996 0.691,-2.161001 1.469,-4.235 2.333,-6.395 1.297,-3.371001 2.506,-6.741 4.148,-9.939001 2.334,-4.665999 5.013,-9.159999 7.605,-13.739999 1.642,-2.852001 3.371,-5.531001 5.185,-8.297001 1.729,-2.679 3.457,-5.444 5.445,-7.949999 2.765,-3.543001 5.79,-6.827001 9.16,-9.766001 3.457,-3.111 6.741,-6.308 10.457,-9.159999 4.84,-3.716001 9.938,-7 15.383,-9.852001 4.407,-2.333 8.987,-4.147999 13.568,-5.876999 2.938,-1.123001 6.135,-1.641 9.16,-2.592 3.457,-1.124001 6.914004,-1.642 10.543004,-1.729 2.334,-0.086 4.581,-0.345 6.914,-0.604 2.074,-0.173 4.148,-0.346 6.395,-0.6050005 -0.259,0.3450005 -0.346,0.5180005 -0.432,0.6910005 -0.951,1.382999 -1.988,2.765 -2.938,4.148 -0.778,1.124 -1.642,2.333 -2.42,3.456999 -1.383,1.815001 -2.852,3.63 -4.148,5.531 -1.988,2.852 -3.803,5.79 -5.877,8.642001 -2.074004,2.765 -4.321004,5.357999 -6.481004,8.037 -2.852,3.716 -5.531,7.518 -8.383,11.234 -2.593,3.543999 -5.358,6.913999 -7.864,10.456999 -2.247,3.111 -4.235,6.395 -6.395,9.593 -3.198,4.753 -6.395,9.419001 -9.593,14.172001 -2.506,3.629999 -5.012,7.173 -7.605,10.803 -0.173,0.259 -0.432,0.346 -0.691,0.518 -0.173,0.173 -0.519,0.346 -0.519,0.518999 -0.172,0.605 -0.172,1.210001 -0.432,1.728001 -0.691,1.296996 -1.382,2.592996 -2.16,3.802996 -0.432,0.691 -1.037,1.296 -1.556,1.987 -0.173,-0.086 -0.259,-0.172 -0.432,-0.172 0.346,-0.865 1.815,-1.383 1.124,-2.679 -0.432,0.691 -0.865,1.296 -1.297,1.987 l -1.037,2.074 c 0.346,0.26 0.951,0.432 0.346,0.951 -0.259,0.432 -0.519,0.95 -0.778,1.383 0.087,0 0.087,0.086 0.173,0.086 0.259,-0.346 0.519,-0.605 0.778,-0.951 0.086,0 0.173,0.087 0.259,0.087 -0.259,0.864 -0.778,1.642 -1.21,2.42 -0.346,0.691 -1.21,1.209 -1.815,1.728 0.087,0.086 0.692,0.346 0.778,0.432 0.259,-0.346 0.346,-0.173 0.605,-0.518 0.173,0.259 0.432,-0.173 0.519,0.086 0.259,-0.346 0.518,-0.605 0.605,-0.864 0.345,-0.864 0.864,-1.556 1.728,-1.901 0.346,-0.173 0.605,-0.433 0.864,-0.692 2.593,-2.679 5.272,-5.271 7.605,-8.123 3.63,-4.407997 6.914,-8.987997 10.37,-13.481997 1.47,-1.900999 3.198,-3.801999 4.753,-5.617 0.173,0.087 0.346,0.087 0.433,0.173 -0.173,1.815 -0.346,3.716001 -0.433,5.531001 -0.259,3.197 -0.432,6.394999 -0.691,9.679 -0.086,1.295999 0,2.592 -0.086,3.888996 0,0.345 -0.26,0.604 -0.26,0.95 0,0.864 0.26,1.815 0.26,2.679 -0.26,3.198 -0.605,6.309 -0.865,9.506 -0.086,0.692 0.26,1.383 0.433,1.988 -0.087,-0.086 -0.173,-0.173 -0.433,-0.346 0,5.013 0.951,9.939 0.173,14.865 0.346,-0.087 0.519,-0.173 0.519,-0.346 0.086,-0.605 0.259,-1.21 0.259,-1.815 0.087,-0.518 0,-1.037 0,-1.642 l 0,-0.864 c 0.087,-1.556 0.432,-3.198 0.259,-4.753 -0.172,-1.729 -0.172,-3.371 0.173,-5.013 0.173,-0.691 -0.086,-1.555 0.346,-2.419 l 0,1.296 c -0.087,4.926 0.086,9.852 -0.605,14.778 -0.086,0.432 0.259,1.21 -0.691,1.123 -0.087,0 -0.173,0.432 -0.346,0.692 -0.432,0.864 0.518,1.987 -0.346,2.851 -0.173,0.173 0.173,0.951 0.259,1.47 0,0.172 0.087,0.345 0,0.432 -0.345,0.605 -0.345,0.605 0.173,0.691 0.087,1.901 0.26,3.63 0.346,5.444 l 0.259,0 c 1.124,-3.284 0.432,-6.654 1.037,-10.024 0.087,1.382 0.173,2.765 0.087,4.234 0,2.247 -0.087,4.408 -0.173,6.655 0,0.432 -0.087,0.864 -0.173,1.296 -0.259,1.21 -0.346,2.42 -0.778,3.543 -0.345,0.864 -0.173,2.161 -0.173,3.198 l 0,3.283 c 0,0.087 0.26,0.346 0.26,0.692 0.086,0.778 -0.346,1.556 -0.087,2.42 0.087,0.173 -0.086,0.432 -0.173,0.605 -0.086,0.259 -0.172,0.518 -0.086,0.777 l 0.259,1.297 c 0,0.086 0.087,0.173 0.173,0.345 0.087,-0.345 0.087,-0.605 0.087,-0.691 1.469,0.173 0.691,1.469 1.382,2.161 -0.345,0.172 -0.605,0.259 -0.605,0.345 0.087,0.346 0.26,0.605 0.26,0.951 0,0.777 -0.087,1.469 -0.173,2.247 0,1.987 -0.087,3.975 -0.087,5.876 0,0.259 0.087,0.519 0.087,0.778 0,0.173 -0.087,0.346 -0.087,0.605 l 0,1.815 0.346,0 c -0.173,0.259 -0.346,0.518 -0.605,0.777 -0.086,0 -0.346,0 -0.346,-0.086 l 0,-10.889 -1.296,0 c -0.173,5.185 0.259,9.852 -0.691,14.691 -1.037,0.087 -1.383,0.26 -2.506,0.26 -2.679,0 -5.358,0 -8.037,0.086 -3.198,0 -6.309,0.087 -9.507,0.087 -1.555,0 -3.197,0.172 -4.753,0.172 -2.074,0 -4.234,-0.259 -6.308,-0.259 -3.198,0 -6.309,0.259 -9.506,0.346 -2.334,0.086 -4.667,0.086 -7,0.173 -1.556,0.086 -3.112,0.173 -4.667,0.345 -0.691,0.087 -1.296,0.346 -2.161,0.605 -0.259,0 -0.864,-0.086 -1.382,0 -0.864,0.173 -1.642,0.692 -2.506,0.864 -1.297,0.26 -1.642,0.605 -1.47,1.902 l 0,0.864 c -0.172,-0.173 -0.432,-0.346 -0.605,-0.432 -0.086,0 -0.172,0.086 -0.172,0.086 0.086,0.259 0.259,0.432 0.345,0.692 0.346,-0.173 0.778,-0.605 1.124,-0.605 l 1.21,0 c -0.173,0 -0.26,0.518 -0.519,0.95 0.691,-0.259 1.124,-0.432 1.556,-0.605 0.086,0.26 0.086,0.605 0.086,0.692 1.21,-0.087 2.333,-0.432 3.37,-0.173 3.371,0.864 6.828,1.21 10.284,1.555 2.247,0.173 4.408,0.26 6.655,0.346 3.197,0.173 6.395,0.346 9.592,0.346 2.679,0 5.272,-0.259 7.951,-0.259 3.716,0 7.432,0.172 11.148,0.259 0.778,0 1.642,-0.087 2.506,-0.087 l 6.309,0 c 5.617,-0.172 11.234,-0.259 16.852,-0.432 3.197,-0.086 6.481,-0.259 9.679,-0.345 l 9.851004,-0.26 c 3.803,-0.086 7.605,-0.086 11.321,-0.173 2.852,0 5.618,-0.086 8.469,-0.172 3.198,-0.087 6.482,-0.346 9.679,-0.519 1.729,-0.086 3.457,-0.259 5.186,-0.432 2.074,-0.173 4.234,-0.432 6.308,-0.519 3.111,-0.172 6.309,-0.259 9.42,-0.432 3.889,-0.259 7.778,-0.605 11.753,-0.691 3.63,-0.173 7.346,-0.086 10.975,-0.173 3.198,-0.086 6.395,-0.259 9.679,-0.345 l 5.445,-0.26 c 0,0 3.629,-0.086 5.444,-0.259 3.111,-0.173 6.222,-0.519 9.333,-0.605 1.988,-0.086 3.976,0 5.963,-0.086 3.198,-0.087 6.482,-0.26 9.679,-0.26 1.21,0 2.507,0.173 4.062,0.26 -0.691,0.605 -1.123,0.95 -1.642,1.382 0.346,0.087 0.691,0.26 1.037,0.432 0,0.087 -0.086,0.173 -0.086,0.346 -0.432,0 -0.864,0.087 -1.297,0.087 -0.172,0.432 -0.345,0.604 -0.518,1.469 l 1.555,0 c -0.604,0 -1.123,0.777 -1.728,1.296 0.087,0.086 0.173,0.086 0.259,0.173 -0.95,-0.346 -1.555,-0.173 -1.901,0.778 0.259,0.086 0.432,0.086 0.691,0.086 -0.086,0.259 -0.172,0.519 -0.259,0.864 -0.086,0.173 -0.173,0.346 -0.173,0.605 l -0.259,-0.259 c 0,-0.173 0,-0.346 -0.086,-0.519 -0.519,0.519 -1.297,0.865 -0.865,1.988 -0.345,0.173 -0.777,0.346 -1.209,0.605 0.086,0.173 0.259,0.346 0.345,0.605 -0.777,0.086 -1.555,0.259 -1.382,1.21 0.345,0.086 0.691,0.259 0.95,0.345 -0.432,0.173 -0.864,0.432 -1.296,0.605 -0.087,0.173 -0.173,0.605 -0.346,0.692 -1.21,0.259 -0.518,0.691 -0.173,1.123 -0.259,0.173 -0.518,0.346 -0.777,0.432 0.259,0.087 0.432,0.173 0.605,0.346 -0.26,0.173 -0.433,0.259 -0.605,0.346 0.172,0.086 0.432,0.259 0.518,0.259 -0.346,0.259 -0.778,0.605 -1.296,1.037 0,0.173 0,0.259 0.086,0.432 -0.345,0.346 -0.691,0.691 -1.037,1.21 -0.345,0.518 -0.518,1.21 -0.95,1.728 -1.815,1.988 -3.112,4.321 -5.445,5.877 -0.864,0.605 -1.642,1.382 -2.42,2.16 -1.555,1.469 -2.938,3.111 -4.58,4.494 -2.16,1.815 -4.407,3.457 -6.741,5.099 -2.851,1.987 -5.703,3.975 -8.555,5.876 -1.556,1.037 -3.284,1.815 -4.926,2.766 -1.642,0.95 -3.197,1.815 -4.84,2.765 -1.037,0.692 -1.987,1.642 -3.111,2.161 -2.852,1.21 -5.876,2.247 -8.814,3.37 -0.26,0.086 -0.432,0.173 -0.692,0.259 -2.16,0.951 -4.234,1.988 -6.395,2.766 -1.988,0.691 -4.061,1.21 -6.136,1.642 -0.691,0.173 -1.469,0 -2.246,0.086 -1.47,0.259 -2.939,0.605 -4.408,0.778 -3.802,0.519 -7.605,0.864 -11.407,1.383 -2.247,0.259 -4.408,0.691 -6.655,0.95 -1.555,0.087 -3.197,-0.086 -4.753,-0.086 -1.123,0 -2.333,0.259 -3.457,0.086 -1.814,-0.259 -3.629,-0.691 -5.444,-1.037 -0.432,-0.086 -1.037,-0.259 -1.383,-0.086 -0.691,0.345 -1.296,-0.173 -1.987,0 -0.432,0.086 -0.864,-0.259 -1.297,-0.259 -0.345,-0.087 -0.777,0.086 -1.209,0 -0.951,-0.26 -1.815,-0.605 -2.852,-0.519 -1.037,0.087 -2.074,-0.432 -3.198,-0.691 -1.555,-0.346 -3.024,-0.692 -4.58,-1.037 -0.605,-0.173 -1.123,-0.432 -1.728,-0.778 -0.173004,0.086 -0.433004,0.259 -0.778004,0.259 -1.469,-0.259 -2.938,-0.345 -4.321,-0.864 -1.21,-0.432 -2.333,-1.037 -3.63,-0.864 -0.345,0.086 -0.605,-0.087 -0.95,-0.087 -0.26,-0.345 -0.519,-1.037 -0.778,-1.037 -1.729,0.087 -2.766,-1.382 -4.235,-1.814 -0.778,-0.26 -1.382,-1.124 -2.16,-1.383 -1.901,-0.778 -3.457,-2.42 -5.617,-2.679 -0.692,-0.087 -1.383,-0.432 -2.161,-0.692 0.259,0.346 0.432,0.605 0.691,0.865 l -0.173,0.172 c -2.333,-1.382 -4.666,-2.765 -6.999,-4.061 -0.346,-0.087 -0.605,-0.432 -0.865,-0.605 l -2.333,-1.556 c -0.259,-0.173 -0.778,-0.432 -0.778,-0.346 -0.518,0.606 -1.037,0.087 -1.382,-0.086 -2.334,-1.642 -5.013,-2.679 -7.26,-4.494 -0.95,-0.777 -2.074,-1.296 -2.765,-2.247 -1.21,-1.469 -2.679,-2.506 -4.321,-3.37 -1.296,-0.691 -2.506,-1.469 -3.716,-2.247 -0.605,-0.432 -1.21,-0.95 -1.21,-1.901 0,-0.605 -0.259,-1.21 -1.037,-0.864 -0.346,-0.519 -0.691,-1.124 -1.123,-1.297 -1.037,-0.432 -1.729,-1.209 -2.507,-1.901 -0.777,-0.691 -1.382,-1.642 -2.333,-1.987 -1.728,-0.692 -2.765,-2.161 -3.802,-3.371 -2.42,-2.852 -4.581,-5.963 -6.828,-8.988 -0.172,-0.259 -0.518,-0.432 -0.777,-0.691 l -0.087,0.087 c 0.432,0.864 0.864,1.642 1.297,2.506 -0.087,0.086 -0.26,0.173 -0.346,0.259 -0.519,-0.605 -1.124,-1.21 -1.642,-1.815 -0.087,0.087 -0.173,0.173 -0.259,0.173 l 6.222,9.852 c 0.518,0.778 0.95,1.555 1.469,2.333 -0.086,0.087 -0.173,0.173 -0.346,0.259 -0.95,-0.172 -1.814,-0.864 -2.247,-1.642 -0.777,-1.382 -1.642,-2.246 -3.37,-2.074 -0.173,-0.605 -0.346,-1.296 -0.432,-1.901 -0.346,0 -0.605,0 -1.21,-0.086 1.21,1.901 2.247,3.543 3.37,5.444 -0.432,-0.259 -0.691,-0.432 -0.864,-0.518 1.556,1.642 2.679,3.716 4.667,4.753 0.432,1.987 2.679,2.938 3.197,4.839 -0.432,-0.086 -0.777,-0.173 -1.209,-0.259 -0.692,-0.864 -1.47,-1.728 -2.247,-2.679 0.172,0.605 0.432,1.123 0.777,1.556 1.037,1.296 1.988,2.592 3.198,3.716 0.432,0.432 1.037,0.605 1.037,1.382 0.173,-0.173 0.346,-0.259 0.691,-0.432 -0.173,0.346 -0.259,0.519 -0.345,0.778 0.345,0 0.605,0.086 0.864,0.086 0.173,0.519 -0.087,1.297 0.95,1.124 0.087,0 0.173,0.086 0.26,0.173 0.432,1.123 1.123,1.123 2.074,0.691 0.173,-0.086 0.605,0 0.691,0.173 0.432,0.95 1.037,1.037 1.815,0.346 0,0.432 0.086,0.864 0.086,1.209 l 0.346,0 c 0,-0.172 -0.086,-0.432 -0.086,-0.864 0.432,0.346 0.691,0.519 0.864,0.692 0.864,1.209 1.642,2.333 2.852,3.283 1.642,1.383 3.111,2.852 4.666,4.149 3.025,2.506 6.395,4.58 9.766,6.481 4.148,2.333 8.123,4.84 12.358,7.086 5.098,2.68 10.543,4.494 16.16,5.791 2.074,0.432 4.062,0.864 6.136,1.382 1.815,0.519 3.630004,1.297 5.444004,1.729 2.766,0.605 5.618,1.123 8.383,1.642 0.605,0.086 1.21,0.173 1.901,0.259 l 0,0.173 c 0.778,0 1.729,-0.346 1.902,-0.087 0.432,0.692 0.777,0.346 1.296,0.26 0.605,-0.173 1.296,-0.173 1.987,-0.173 2.42,0.086 4.753,0.605 7.173,0.432 0.519,0 1.297,-0.432 1.729,0.432 0.173,-0.087 0.259,-0.173 0.432,-0.259 0.345,-0.087 0.778,-0.087 1.123,-0.173 l 0,0.173 c -0.173,0.086 -0.345,0.086 -0.691,0.173 0.432,0.086 0.691,0.172 0.951,0.259 -0.173,0.173 -0.26,0.173 -0.433,0.259 -0.172,0.086 -0.432,0.173 -0.777,0.432 3.111,0.605 6.049,0.692 8.642,0 l 0,-0.518 0.345,0 c 0,0.172 0.087,0.345 0.173,0.518 3.975,0.346 7.864,-0.173 11.58,-1.469 0.346,0.432 0.605,1.037 1.124,0.173 0.173,-0.259 0.605,-0.346 0.95,-0.432 0.778,-0.173 1.729,-0.519 2.42,-0.259 0.778,0.259 1.037,-0.433 1.642,-0.433 1.037,0 1.988,-0.086 2.938,-0.259 0.519,-0.086 1.037,-0.346 1.642,-0.518 0,-0.087 0,-0.173 -0.086,-0.26 -0.605,-0.086 -1.296,-0.172 -1.815,-0.172 1.037,-0.519 1.988,-0.951 2.938,-1.383 0,0.086 0.087,0.086 0.087,0.173 -0.26,0.086 -0.432,0.432 -0.778,0.432 l 1.21,0 c -0.259,0 -0.605,0.778 -1.037,1.296 3.111,-0.778 5.963,-1.469 8.728,-2.16 l 0,-0.173 c -0.345,0.086 -0.605,0.086 -0.864,0.173 -0.086,-1.815 1.901,-1.21 2.593,-2.247 -0.865,0.259 -1.729,0.518 -2.593,0.691 l 0,-0.173 c 2.938,-1.296 5.963,-2.592 8.901,-3.889 0,0.087 0.087,0.087 0.087,0.173 -0.519,0.346 -1.037,0.605 -1.815,1.037 0.518,0.087 0.864,0.087 1.123,0.173 0,0.259 0,0.432 -0.086,0.519 1.469,-0.087 1.123,-1.383 1.555,-2.161 0.26,0.086 0.605,0.259 0.865,0.173 0.777,-0.173 1.469,-0.432 2.246,-0.691 0.865,-0.26 1.729,-0.519 2.593,-0.865 1.383,-0.605 2.679,-1.382 4.062,-2.074 0.259,-0.086 0.691,0 1.037,0 0.259,0 0.432,-0.173 0.605,-0.345 0.345,-0.26 0.691,-0.778 0.95,-0.692 1.21,0.173 2.074,-0.259 2.42,-1.382 0.087,0 0.087,-0.087 0.173,-0.087 0.432,-0.345 0.864,-0.691 1.296,-0.951 1.902,-1.037 3.716,-2.073 5.618,-3.111 0.086,-0.086 0.259,0 0.432,0 0.259,0 0.605,0 0.777,-0.086 1.124,-0.519 2.161,-1.123 3.198,-1.728 -0.259,-0.087 0,-0.173 -0.864,-0.26 l 0,-0.173 c 0.864,-0.172 1.123,-0.259 1.642,-0.432 l -0.173,-0.172 c 2.247,-2.247 5.099,-3.889 7.259,-5.79 0.432,0.086 0.605,0.172 0.864,0.172 0.087,-0.259 0.087,-0.518 0.087,-0.691 0.345,-0.432 0.691,-0.951 1.123,-1.296 1.901,-1.729 3.976,-3.198 5.704,-5.013 2.506,-2.506 4.926,-5.098 7.173,-7.777 2.074,-2.42 4.148,-4.84 5.876,-7.519 2.42,-3.716 4.494,-7.518 6.654,-11.407 1.556,-2.766 2.939,-5.531 4.494,-8.297 0.173,-0.259 0.519,-0.604 0.778,-0.604 2.333,-0.26 4.667,-0.433 6.914,-0.692 0.518,-0.086 1.123,-0.432 1.642,-0.691 -0.26,-0.432 -0.433,-0.951 -0.692,-1.383 -0.345,-0.519 -0.864,-0.951 -1.21,-1.469 -0.345,-0.432 -0.604,-0.951 -0.864,-1.469 -0.259,-0.432 -0.518,-0.778 -0.778,-1.21 -0.518,-0.951 -1.037,-1.901 -1.469,-2.938 -0.086,-0.26 -0.259,-0.692 -0.173,-0.951 1.556,-3.37 2.161,-7 3.63,-10.37 1.469,-3.457 1.901,-7.346 2.593,-11.062 0.605,-3.543 0.95,-7.086 1.382,-10.63 0.26,-2.506 0.605,-4.926 0.692,-7.432 0.518,-3.975 0.345,-7.691 0.259,-11.407 l 0,0 0,0 z m -217.259004,96.444 c -0.604,-0.691 -1.123,-1.469 -1.728,-2.16 l 0.259,-0.26 c 0.951,1.038 1.902,2.074 2.852,3.198 -0.518,-0.259 -1.123,-0.432 -1.383,-0.778 l 0,0 0,0 z m 1.383,0.778 c 0.259,-0.086 0.519,-0.086 0.778,-0.173 0.259,0.432 0.432,0.951 0.691,1.469 -1.21,-0.086 -1.815,-0.605 -1.469,-1.296 l 0,0 0,0 z m 89.876004,35.691 0,-0.259 c 1.642,-0.173 3.198,-0.346 4.84,-0.518 l 0,0.259 c -1.642,0.259 -3.198,0.432 -4.84,0.518 l 0,0 0,0 z m 21.778,-2.247 c -1.21,0.26 -2.506,0.432 -3.716,0.605 -0.432,0.087 -0.95,0.519 -1.123,-0.259 -0.173,0.086 -0.346,0.086 -0.519,0.173 0.432,1.296 1.469,0.259 2.333,0.778 -1.901,0.259 -3.716,0.432 -5.53,0.691 l 0,-0.173 c 0.518,-0.086 1.123,-0.173 1.642,-0.259 l 0,-0.259 c -0.865,-0.087 -1.729,-0.173 -2.593,-0.173 -0.259,0 -0.605,0.346 -0.864,0.432 -0.346,0.086 -0.692,0.173 -1.124,0.173 -1.469,0.086 -2.938,0.086 -4.321,0.173 -0.086,0 -0.259,-0.087 -0.345,-0.087 l 0,-0.259 c 5.79,-0.778 11.494,-1.556 17.284,-2.333 0.086,0.172 0.086,0.345 0.172,0.518 -0.518,0 -0.864,0.173 -1.296,0.259 l 0,0 0,0 z m 1.296,-0.864 c 1.988,-0.259 3.803,-0.432 5.704,-0.691 -3.975,1.123 -5.271,1.296 -5.704,0.691 l 0,0 0,0 z M 77.704586,76.418344 c 2.766,-3.802001 5.617,-7.605 8.383,-11.494 0.864,-1.123 1.555,-2.333001 2.42,-3.456 0.259,-0.346001 0.604,-0.519001 1.037,-0.865001 l -0.087,-0.172 c 0.346,-0.433 0.691,-0.778 0.864,-1.123999 0.432,-0.691001 0.692,-1.469001 1.037,-2.247 0.087,-0.173001 0.346,-0.345 0.346,-0.345 1.21,0.604 1.21,-0.692 1.642,-1.124001 0.778,-0.863999 1.556,-1.814999 2.247,-2.679 0.518,-0.690999 1.037,-1.296 1.469,-2.074 0.086,-0.259 -0.173,-0.691 -0.259,-1.036999 l -0.259,0 c 0.259,-0.173001 0.518,-0.432001 0.777,-0.605001 0.087,0 0.087,0 0.173,-0.086 0.519,-0.778 1.037,-1.555999 1.556,-2.247 1.037004,-1.383 2.160004,-2.766 3.370004,-3.976 -0.173,0.432001 -0.346,0.865001 -0.518,1.21 0.086,0 0.086,0.087 0.172,0.087 1.037,-1.382999 2.161,-2.678999 3.198,-4.062 -0.087,-0.086 -0.173,-0.173 -0.259,-0.173 -0.432,0.432 -0.778,0.864001 -1.21,1.296 -0.087,-0.086 -0.173,-0.172 -0.26,-0.172 0.865,-1.124 1.729,-2.247 2.593,-3.543999 0.173,0.259999 0.346,0.604999 0.691,1.296999 0.346,-0.865 0.692,-1.47 0.951,-2.073999 -0.259,0.259 -0.605,0.518 -0.864,0.777 l -0.26,-0.259 1.556,-2.333001 c 1.642,-2.334 3.284,-4.753 4.926,-7.087 0.605,-0.864 1.383,-1.554999 1.901,-2.419 1.642,-3.283999 4.235,-5.876999 6.222,-8.902 0.433,-0.603999 1.037,-1.122999 1.556,-1.641999 0.432,-0.518001 0.778,-0.345001 1.124,0.087 2.333,2.937999 4.666,5.962999 6.999,8.900999 1.729,2.161 3.457,4.235 5.099,6.481 1.988,2.766 3.889,5.531 5.877,8.297 2.247,3.197 4.494,6.395001 6.654,9.679 3.284,4.839 6.395,9.679001 9.679,14.518 2.42,3.544001 4.84,7 7.173,10.544001 l -4.408,0 c -4.061,-0.087 -8.209,-0.433001 -12.271,-0.260001 -5.531,0.260001 -11.148,0.864001 -16.679,1.296001 -7,0.604999 -14.087,0.691999 -21.086,0.691999 -2.507,0 -5.013,0.345 -7.519,0.518 -3.025,0.173001 -5.963004,0.346001 -8.988004,0.433 -3.543,0.172001 -7,0.259 -10.543,0.345001 -1.987,0.087 -4.062,0 -6.222,0 l 0,0 0,0 z m 99.123004,39.752996 0,0.778 c -0.086,0 -0.173,0.086 -0.346,0.086 -0.345,-1.21 -0.691,-2.506 -1.123,-3.716 -0.864,-2.506 -1.815,-5.012 -3.37,-7.259 -1.729,-2.42 -3.284,-4.926 -5.013,-7.431997 -0.432,-0.605 -1.037,-1.123999 -1.555,-1.641999 -1.815,-1.988 -3.63,-4.062 -5.963,-5.531001 -3.457,-2.159999 -7,-3.974999 -10.803,-5.530999 -1.037,-0.432 -1.987,-0.95 -3.024,-1.555001 l 2.074,0 14.778,-0.259 c 3.197,-0.087 6.308,-0.087 9.506,-0.26 0.778,0 1.21,0.26 1.642,0.951001 0.778,1.295999 1.555,2.591999 2.419,3.888999 0.087,0.172 0.26,0.432 0.26,0.691 0,1.901 0,3.889 0.086,5.790001 0.087,1.988 0.259,3.889 0.346,5.876996 0,1.987 -0.173,4.061 -0.087,6.135 0.087,2.939 0.173,5.963 0.173,8.988 l 0,0 0,0 z M 83.840586,87.221344 c 4.062,-0.173 7.95,-0.433001 11.926,-0.605001 3.111,-0.173 6.308004,-0.26 9.419004,-0.432 1.297,-0.087 2.507,-0.173 3.803,0 -1.383,0.691 -2.765,1.382001 -3.975,2.247 -1.556,1.036 -3.025,2.419 -4.581,3.543001 -1.555004,1.122999 -2.938004,2.506 -4.234004,3.974999 -1.642,1.988 -3.457,3.716001 -5.185,5.616997 -1.21,1.383 -2.593,2.679 -3.63,4.148 -1.469,1.902 -2.765,3.976 -4.148,6.136 0.432,-8.21 0.951,-16.332997 0.605,-24.628996 l 0,0 0,0 z m 56.432004,83.134996 c -2.766,0.691 -5.617,1.469 -8.469,1.815 -2.42,0.346 -4.926,0.259 -7.432,0.259 -2.247,0 -4.408,-0.086 -6.655,-0.259 -2.506,-0.259 -5.012,-0.519 -7.432,-1.642 -2.074,-0.951 -4.234,-1.815 -6.308,-2.852 -2.074,-1.037 -4.149004,-2.247 -5.704004,-4.148 -1.124,-1.383 -2.679,-2.506 -4.062,-3.716 0.259,1.037 0.864,1.901 1.815,2.506 -0.432,0.519 -1.037,0.259 -1.901,-1.123 -0.259,0.172 -0.519,0.259 -0.692,0.345 0.26,-0.605 0.519,-1.209 0.778,-1.728 -0.345,-0.691 -0.778,-1.469 -1.123,-2.16 -0.692,-1.124 -1.383,-2.334 -1.988,-3.457 -0.173,-0.26 -0.173,-0.519 -0.346,-0.778 -0.432,-0.519 -0.864,-1.037 -1.209,-1.556 -0.692,-1.037 -1.297,-2.16 -2.161,-3.197 0,0.259 0.086,0.518 0.086,0.864 -0.086,0 -0.172,0.086 -0.172,0.086 l -1.815,-4.407 c -0.087,0 -0.087,0 -0.173,0.087 l 1.556,5.703 c -0.087,0 -0.173,0.087 -0.26,0.087 -0.259,-0.346 -0.518,-0.692 -0.691,-1.124 -0.173,-0.691 -0.691,-0.691 -1.124,-0.432 -0.259,0.173 -0.432,0.778 -0.345,1.037 0.605,1.469 1.296,2.938 1.987,4.408 0.173,0.518 0.346,0.95 0.605,1.469 0.087,0.173 0.346,0.345 0.346,0.605 0.346,0.691 0.605,1.382 1.037,1.987 0.778,1.037 1.642,2.074 2.42,3.111 0.778,1.037 1.469,2.161 2.16,3.198 0.087,0.173 0.346,0.173 0.432,0.259 0.433,1.296 1.902,2.247 2.939,1.729 0.259,1.987 2.419,2.679 3.284,4.58 -1.037,-0.432 -1.815,-0.778 -2.507,-1.124 -0.086,0.087 -0.086,0.173 -0.172,0.346 1.037,0.518 2.074,1.037 3.024004,1.642 0.864,0.518 1.729,1.037 2.506,1.642 1.038,0.95 2.247,1.469 3.717,1.815 -0.087,-0.26 -0.173,-0.346 -0.173,-0.346 2.419,1.124 4.926,2.333 6.827,3.284 -8.988,0.173 -18.580004,0.346 -28.519004,0.518 0,-1.642 -0.086,-3.197 -0.086,-4.839 0,-0.691 0.173,-1.296 0.086,-1.988 -0.259,-3.975 -0.259,-7.95 -0.777,-11.839 -0.519,-4.148 -0.519,-8.21 -0.432,-12.358 0.086,-2.247 -0.087,-4.58 -0.173,-6.827 0,-3.025 0,-5.963 0.086,-8.988 0,-0.432 0.173,-0.778 0.346,-1.21 l 0.259,0 c 0.086,0.173 0,0.432 0.173,0.519 0.259,0.259 0.691,0.691 0.864,0.605 0.519,-0.346 1.296,-0.692 1.469,-1.21 0.432,-1.037 0.605,-2.161 0.605,-3.198 0,-0.777 0.346,-1.296 0.691,-1.815 0.173,-0.259 0.26,-0.518 0.433,-0.864 -0.346,-0.259 -0.692,-0.432 -1.124,-0.777 0.346,-0.951 0.259,-2.075 1.556,-2.593 0.173,-0.087 0.173,-0.519 0.259,-0.778 0.086,-0.691 0.173,-1.469 0.259,-2.16 0.173,0.259 0.259,0.345 0.432,0.518 0.087,-0.173 0.173,-0.259 0.173,-0.259 0,-0.346 -0.086,-1.037 0,-1.037 1.037,-0.173 0.605,-1.296 1.124,-1.815 0.086,-0.086 -0.087,-0.346 -0.087,-0.518 0,-0.173 0,-0.433 0.087,-0.433 1.209,-0.259 1.037,-1.555 1.814,-2.16 0.26,-0.173 0.346,-0.432 0.692,-0.864 0.691,1.21 -0.519,1.815 -0.605,2.679 1.469,-0.864 1.901,-2.938 1.037,-3.543 0.346,-0.26 0.691,-0.605 0.95,-0.951 0.951,-1.037 1.988,-1.988 2.852,-3.025 0.605,-0.778 0.951,-1.728 1.556,-2.506 0.346,-0.432 1.037,-0.778 1.555004,-1.037 1.556,-0.864 3.025,-1.815 3.976,-3.284 0.173,-0.173 0.432,-0.346 0.691,-0.518 0.259,-0.173 0.778,-0.173 0.864,-0.433 0.087,-0.172 -0.173,-0.603997 -0.346,-0.863996 0.346,-0.173001 0.692,-0.518 1.383,-0.864001 -0.259,0.519001 -0.345,0.864001 -0.518,1.210001 l 0.432,0.431996 c 0.778,-0.604996 1.988,-1.295996 2.765,-1.814997 0,-0.086 -0.432,-0.432 -0.432,-0.432 -0.518,0.26 -1.296,0.692 -2.074,1.037 0.173,-0.259 0.173,-0.432 0.259,-0.518 1.21,-0.778 2.42,-1.555999 3.716,-2.161 3.025,-1.382999 6.05,-2.765 9.074,-4.062 0.519,-0.259 1.21,-0.086 1.815,-0.086 0.259,0 0.432,0 0.692,-0.086 1.382,-0.432001 2.765,-0.864001 4.148,-1.210001 0.605,-0.173 1.296,-0.259 1.901,-0.259 2.593,0.086 5.185,0.086 7.778,0.259 1.123,0.086 2.16,0.346 3.197,0.691 1.297,0.432 2.679,1.037001 3.889,1.642 1.469,0.778 2.852,1.642001 4.235,2.593 2.506,1.642 4.839,3.456 7.345,4.925998 2.42,1.469 4.321,3.456 5.877,5.703 1.901,2.679 4.062,5.099 4.926,8.383 l 1.296,5.704 c 0.259,1.037 0.864,2.074 0.605,3.284 -0.432,2.16 -0.778,4.407 -1.123,6.568 -0.173,0.864 -0.346,1.728 -0.26,2.592 0.173,2.679 -0.864,5.012 -1.901,7.432 -0.346,0.778 -0.864,1.556 -1.296,2.42 0.086,0.086 0.605,0.346 0.691,0.346 l 0.778,-1.556 c 0.086,0 0.086,0 0.173,0.087 -0.432,1.209 -0.778,2.506 -1.21,3.716 -1.037,2.679 -2.074,5.444 -3.37,8.037 -0.692,1.469 -1.902,2.679 -2.766,4.061 -0.864,1.21 -1.555,2.506 -2.42,3.63 -0.777,0.951 -1.555,1.901 -2.592,2.593 -2.334,1.728 -4.753,3.456 -7.259,4.839 -1.556,0.951 -3.371,1.469 -5.099,1.901 l 0,0 0,0 z m -46.062004,-4.58 -0.086,0.086 c -0.173,-0.086 -0.432,-0.173 -0.605,-0.345 l -2.074,-3.111 c -0.173,-0.26 -0.259,-0.519 -0.173,-0.865 0.95,1.469 1.901,2.852 2.938,4.235 l 0,0 0,0 z m 53.753004,11.839 c 3.889,-1.642 7.087,-3.975 10.025,-6.654 0.432,-0.432 0.864,-0.864 1.383,-1.21 3.629,-2.247 6.308,-5.358 8.728,-8.815 2.765,-3.975 4.58,-8.469 6.827,-12.703 0.173,-0.346 0.346,-0.692 0.519,-0.951 -0.173,9.852 0.95,19.531 2.246,29.296 -9.765,0.346 -19.703,0.692 -29.728,1.037 l 0,0 0,0 z m 87.63,-2.592 c -0.087,0.173 -0.26,0.345 -0.346,0.518 -0.087,-0.173 -0.087,-0.432 -0.173,-0.777 -0.519,1.382 -1.642,0.691 -2.42,0.691 -4.666,0.086 -9.419,0.086 -14.086,0.086 -4.494,0 -9.074,0 -13.568,0.087 -1.469,0 -3.025,0.345 -4.494,0.432 -3.543,0.173 -7.086,0.259 -10.629,0.345 -0.26,0 -0.519,-0.432 -0.951,-0.777 -0.086,0.173 -0.259,0.432 -0.519,0.777 -0.086,-0.172 -0.259,-0.345 -0.432,-0.604 -0.086,0.259 -0.173,0.518 -0.259,0.691 l -0.259,0 c -0.173,-1.21 -0.519,-2.333 -0.519,-3.543 0,-2.593 0.259,-5.185 0.346,-7.778 0.086,-1.21 0,-2.333 0,-3.457 0.346,0.26 0.605,0.432 0.951,0.692 0.172,-0.346 0.345,-0.605 0.518,-0.865 0,0 -0.173,-0.086 -0.346,-0.259 0.173,-0.086 0.346,-0.259 0.346,-0.345 0.087,-0.26 0.259,-0.519 0.259,-0.692 0,-0.605 -0.172,-1.123 -0.259,-1.642 0.087,0 0.173,0 0.259,-0.086 l 0.519,2.592 0.259,0 c -0.345,-0.605 0.778,-1.123 -0.173,-1.815 -0.086,-0.086 0.087,-0.605 0.087,-0.864 -0.259,-0.518 -0.432,-1.037 -0.692,-1.728 0.087,-0.086 0.346,-0.173 0.605,-0.259 -0.345,-0.173 -0.605,-0.346 -0.864,-0.433 0.864,-0.777 0.864,-1.209 0.087,-2.074 0.172,-0.086 0.345,-0.086 0.345,-0.172 0,-0.778 0,-1.556 -0.173,-2.334 -0.172,-0.864 0.26,-1.901 -1.037,-2.419 0.087,0.259 0.173,0.432 0.346,0.691 0,0 -0.259,0.086 -0.519,0.259 -1.123,-1.037 -0.432,-2.42 -0.691,-3.975 0.605,0.173 1.037,0.346 1.469,0.518 -0.173,-0.604 -0.605,-1.296 -0.864,-2.074 l -0.346,0 0,-5.703 c 0,0.086 0.605,0.086 0.951,0.172 0,-0.086 0.086,-0.172 0.086,-0.259 -0.259,-0.346 -0.605,-0.691 -0.95,-1.123 l 0.173,-0.173 c -0.692,-0.864 -0.346,-2.074 -0.346,-2.333 l 0,-6.05 c 0.864,0.864 -0.432,1.988 0.864,2.506 l 0,-0.864 -0.086,0 c -0.087,-1.296 -0.087,-2.592 -0.173,-3.889 l -0.173,0 c -0.086,0.173 -0.086,0.26 -0.173,0.432 l -0.173,0 c 0.173,-6.827 0.346,-13.654 0.519,-20.654 0.864,1.124 1.815,2.161 2.42,3.284 1.987,3.63 4.58,6.741 7,10.025 2.074,2.852 3.975,5.963 5.876,8.901 2.333,3.543 4.58,7.086 6.914,10.63 1.728,2.679 3.543,5.358 5.358,7.95 1.642,2.333 3.37,4.58 5.099,6.827 1.469,1.988 3.024,3.976 4.493,5.963 1.729,2.42 3.457,4.84 5.186,7.173 0.864,1.21 1.814,2.42 2.765,3.63 0.518,0.691 1.296,1.21 1.815,1.642 -0.087,0 -0.173,0 -0.346,-0.087 0.259,0.346 0.432,0.605 0.605,0.778 0.951,0.518 1.037,1.037 0.519,1.815 l 0,0 0,0 z m 4.407,-21.605 0,-0.605 c 0,0.173 0.086,0.432 0,0.605 l 0,0 0,0 z m 2.938,-38.111 c -0.086,0 -0.605,-0.519 -0.691,-0.605 -0.087,0.259 0,0.518 -0.173,0.864 -0.086,-0.259 -0.691,-0.173 -0.691,-0.432 -0.087,1.21 0.518,2.42 0.432,3.63 0.259,-0.173 1.296,-0.26 1.555,-0.519 0.087,0.087 0.259,0.173 0.346,0.173 -1.728,1.296 -1.296,2.593 -0.519,4.062 0.173,0.345 0.692,1.037 0.173,1.728 -0.173,0.173 0.087,0.692 0.173,1.124 l 0.259,0 0,0.172 -0.777,0.26 c -0.173,-0.26 -1.21,-0.778 -1.21,-1.21 l 0,4.407 c 0.864,0.259 0.864,1.469 1.21,2.074 0.172,-0.259 0.259,-0.432 0.345,-0.691 l 0.087,0.086 c -0.087,0.519 -0.173,1.037 -0.346,1.556 -0.173,0.778 -0.346,1.469 -0.432,2.247 0,0.086 0.173,0.259 0.173,0.345 -0.951,2.161 -0.432,4.581 -0.778,6.828 -0.259,1.642 0,3.37 -0.173,5.098 -0.173,1.47 -0.518,3.025 -0.864,4.494 -0.086,0.259 -0.259,0.346 -0.691,0.519 0.172,-1.037 0.086,-1.729 -0.087,-2.679 -0.086,0 -1.21,-0.605 -1.296,-0.605 0,1.21 0.691,2.852 0.951,4.234 -0.26,-0.086 -1.297,-0.691 -1.383,-0.691 -0.173,1.037 -0.173,2.42 -0.259,3.543 -0.087,0.864 -0.865,1.642 -0.951,2.593 0,0.518 0.605,0.864 0.518,1.728 l 0.692,0 c 0,-1.728 0.778,-3.284 0.778,-5.099 l 0.259,0 c 0.086,0.173 0.346,0.346 0.259,0.433 -0.173,0.95 -0.518,1.987 -0.432,2.938 0,0.518 0.432,1.037 0.259,1.642 -0.173,0.518 -0.259,1.037 -0.345,1.814 -0.087,-0.432 -0.173,-0.604 -0.173,-0.864 -0.087,0 -0.864,-0.086 -0.951,-0.086 -0.086,0.518 0.605,1.037 0.519,1.469 -0.087,0.087 -0.173,0.087 -0.346,0.173 l -2.852,-4.148 c -2.247,-3.284 -4.494,-6.568 -6.741,-9.938 -0.605,-0.865 -1.123,-1.729 -1.555,-2.593 -2.679,-4.58 -5.617,-8.988 -8.901,-13.222 -2.507,-3.198 -4.494,-6.655 -6.828,-10.025 -2.16,-3.197 -4.321,-6.309 -6.481,-9.506 -0.778,-1.037 -1.728,-1.988 -2.42,-3.111 -2.247,-3.543 -4.234,-7.173 -6.481,-10.715996 -1.901,-2.939001 -3.976,-5.790001 -5.963,-8.642 -0.691,-0.951001 -1.383,-1.988 -2.074,-3.025001 -0.087,-0.173 -0.173,-0.346 -0.173,-0.605 -0.173,-1.901 -0.346,-3.801999 -0.432,-5.616999 0,-1.729 0.173,-3.457001 0.173,-5.272001 l 0,-1.555 c 0,-0.431999 0.086,-0.777999 0.086,-1.21 0.086,-0.087 0.173,-0.259 0.259,-0.346 -2.506,0 -5.098,-0.086 -7.605,0 -1.641,0.087 -2.506,-0.604999 -3.629,-1.813999 -3.284,-3.717 -5.704,-7.951 -8.556,-11.926001 -2.679,-3.803 -5.444,-7.518999 -8.21,-11.234999 -2.246,-3.025 -4.493,-5.963001 -6.74,-8.988 -2.506,-3.456001 -4.926,-6.913001 -7.519,-10.370001 -3.111,-4.147999 -6.308,-8.295999 -9.506,-12.443999 -1.469,-1.902001 -3.111,-3.716001 -4.753,-5.704 1.123,0.173 2.16,0.346 3.198,0.432 l 4.148,0.259 c 3.111,0.26 6.222,0.432 9.333,0.863999 2.593,0.346 5.185,0.865001 7.864,1.297001 5.704,0.949999 11.321,2.506 16.766,4.320999 3.197,1.037 6.308,2.420001 9.419,3.716 7,2.852 13.655,6.308 20.222,9.938 2.075,1.123 3.284,2.938001 4.84,4.58 2.247,2.334 4.494,4.667 6.654,7.087 2.506,2.852 4.84,5.79 7.259,8.728001 2.161,2.592999 4.408,5.184999 6.568,7.778 0.692,0.777999 1.21,1.728 1.815,2.591999 1.383,2.074 2.938,4.062 4.148,6.309 0.865,1.642 1.383,3.543001 1.988,5.358001 0.864,2.679 1.728,5.271999 2.593,7.950999 0.604,1.987001 1.123,4.061001 1.555,6.135 0.346,1.383 0.259,2.852001 0.691,4.235 0.519,1.815 0,3.802001 0.519,5.617001 0.086,0.173 0.173,0.432 0.259,0.604999 0.346,0.346 0.605,0.691 0.087,1.210001 -0.087,0.086 -0.087,0.432 0,0.691 0.172,-0.172001 0.259,-0.345 0.432,-0.605001 0,0.173001 0.086,0.260001 0.086,0.346001 0,0.345999 -0.086,0.690996 0,1.036996 0,0.173 0.173,0.432 0.259,0.605 0.173,-0.173 0.346,-0.259 0.692,-0.518 0.777,2.938 0.864,5.876 0.864,8.901 0,2.852 0.518,5.703 -0.691,8.469 0.259,-0.951 -0.346,-1.815 -0.087,-2.679 l 0,0 0,0 z"
         id="path6"
         style="fill:#f2f2f2" />
      <path
         d="m 188.001,149.197 c 0.086,0 0.173,0.087 0.173,0.087 l -0.087,-0.087 c 0,-0.086 0,-0.086 -0.086,0 l 0,0 0,0 z m 13.654,85.383 c -0.95,0.691 -1.901,1.296 -3.111,1.555 -0.086,-0.086 -0.086,-0.173 -0.173,-0.259 0.951,-0.605 1.988,-1.21 2.939,-1.815 0.086,0.173 0.259,0.346 0.345,0.519 l 0,0 0,0 z M 39.619,117.481 c 0.95,-1.21 1.901,-2.42 2.938,-3.629 0.086,0.086 0.778,0.259 0.864,0.345 -0.95,1.21 -2.247,2.852 -3.197,4.148 -0.173,-0.172 -0.432,-0.777 -0.605,-0.864 l 0,0 0,0 z m -24.543,42.346 c -0.692,-1.469 -1.383,-3.025 -2.074,-4.494 0.086,-0.086 0.691,-0.346 0.777,-0.346 0.951,1.383 1.383,3.025 2.074,4.494 0,0 -0.691,0.346 -0.777,0.346 l 0,0 0,0 z m 22.037,-41.482 c -0.519,0.778 -1.037,1.642 -1.556,2.42 -0.086,-0.086 -1.037,0.346 -1.123,0.259 0.518,-0.777 1.814,-2.16 2.333,-2.938 0.086,0.087 0.173,0.173 0.346,0.259 l 0,0 0,0 z m 155.295,119.778 c 0.087,0 0.087,-0.087 0.173,-0.087 0.605,0.087 1.297,0.173 1.988,0.173 -1.124,0.778 -1.815,0.692 -2.161,-0.086 l 0,0 0,0 z M 37.285,121.975 c 0.087,-0.259 0.26,-0.519 0.432,-0.778 0.173,0 0.433,-0.086 0.433,-0.086 0.345,-0.605 0.345,-1.037 0.691,-1.556 -0.086,-0.086 -0.173,-0.086 -0.259,-0.173 -0.519,0.346 -1.037,0.778 -1.556,1.124 0.173,0.173 0.173,0.259 0.173,0.432 -0.691,-0.086 -0.951,0.259 -1.296,1.21 -0.087,0.259 -0.519,0.345 -0.951,0.691 -0.086,0.173 -0.173,0.605 -0.346,1.037 l 0.087,0.087 c -0.173,0.172 -0.432,0.259 -0.432,0.259 -0.519,0.518 -1.124,0.951 -1.642,1.469 -0.087,0.259 -0.173,0.519 -0.173,0.778 0.605,-0.605 1.642,-1.729 2.42,-2.42 l 0.086,0.086 c 0.346,-0.518 0.605,-1.037 0.951,-1.555 0.086,0.086 0.086,0.173 0.173,0.259 -0.26,0.691 -0.519,1.469 -0.778,2.161 -0.173,0.086 -0.432,0.259 -0.432,0.173 -0.346,0.259 -0.605,0.604 -0.951,0.864 l -1.555,1.037 c -0.865,0.778 -1.729,1.469 -2.679,2.247 -0.605,0.95 -1.21,1.814 -1.902,2.938 1.037,-0.259 1.297,0.173 1.21,1.037 1.21,0.173 1.296,-0.778 1.642,-1.469 0.087,-0.173 0.173,-0.519 0.346,-0.605 0.778,-0.691 1.642,-1.296 2.506,-1.988 0.173,-0.173 0.173,-0.518 0.173,-0.778 0,-0.086 -0.432,-0.086 -0.691,-0.172 0.777,-0.865 1.901,-2.334 2.679,-3.284 0.432,-0.26 0.864,-0.605 0.864,-0.865 -0.087,-0.95 0.518,-1.209 1.209,-1.555 -0.345,-0.259 -0.432,-0.519 -0.432,-0.605 l 0,0 0,0 z"
         id="path8"
         style="fill:#f2f2f2" />
      <path
         d="m 39.014,121.024 c -0.346,0.605 -0.691,1.124 -1.037,1.729 l -0.519,-0.26 c -0.345,1.988 -1.555,3.717 -2.765,4.062 0.346,0.173 0.691,0.346 0.951,0.259 0.259,-0.086 0.432,-0.518 0.604,-0.777 l 2.334,-3.371 0.778,-1.296 -0.346,-0.346 0,0 z m -28.778,37.938 c 0.432,0 0.864,0.087 1.383,0.087 0,-0.346 0.432,-0.259 0.432,-0.605 l 0.259,0 c 0,0.432 0.087,0.778 0.087,1.21 l -1.815,0 c -0.087,-0.087 -0.432,-0.605 -0.346,-0.692 l 0,0 0,0 z m -0.691,-3.975 c -0.259,-0.259 -0.692,-0.518 -0.692,-0.778 -0.086,-0.345 0.173,-0.777 0.433,-1.209 0.172,0.604 0.259,1.123 0.432,1.728 -0.087,0.086 -0.173,0.173 -0.173,0.259 l 0,0 0,0 z m 2.16,-5.531 c 0.346,0.865 0.692,1.815 1.037,2.679 -0.086,0 -0.605,0.26 -0.691,0.346 -0.346,-0.864 -0.778,-1.815 -1.123,-2.679 0.086,-0.086 0.604,-0.346 0.777,-0.346 l 0,0 0,0 z m 192.37,82.618 c 0.432,-0.173 0.951,-0.26 1.642,-0.433 -0.778,0.605 -1.383,1.037 -1.901,1.556 -0.087,-0.087 -0.173,-0.173 -0.259,-0.173 0.172,-0.346 0.345,-0.605 0.518,-0.951 l 0,0.001 0,0 z M 97.866,49.469 c 0.518,-0.346 0.95,-0.605 1.469,-0.951 l 0.173,0.173 c -0.519,0.692 -0.951,1.383 -1.556,2.247 -0.086,-0.605 -0.086,-0.951 -0.173,-1.383 -0.086,0 0,0 0.087,-0.086 l 0,0 0,0 z m 25.32,43.728 c 0.778,-0.345 1.556,-0.691 2.507,-1.123 -0.087,0.518 -0.087,0.864 -0.087,1.21 -0.259,-0.087 -0.605,-0.173 -0.864,-0.173 -0.518,0.086 -1.469,0.778 -1.901,0.864 -0.087,0 0.345,-0.691 0.345,-0.778 l 0,0 0,0 z m 64.815,73.284 c 0.173,0.864 1.815,1.296 0.173,2.16 0.259,0.173 0.518,0.26 0.778,0.433 0,0.086 -0.087,0.259 -0.173,0.345 -0.173,0.087 -0.519,0.26 -0.692,0.173 -0.086,0 -0.259,-0.346 -0.259,-0.518 0,-0.778 0.087,-1.556 0.173,-2.593 l 0,0 0,0 z"
         id="path10"
         style="fill:#f2f2f2" />
    </g>
  </g>
</svg>
