<?xml version="1.0" encoding="UTF-8" standalone="no"?>
<!-- Created with Inkscape (http://www.inkscape.org/) -->

<svg
   xmlns:dc="http://purl.org/dc/elements/1.1/"
   xmlns:cc="http://creativecommons.org/ns#"
   xmlns:rdf="http://www.w3.org/1999/02/22-rdf-syntax-ns#"
   xmlns:svg="http://www.w3.org/2000/svg"
   xmlns="http://www.w3.org/2000/svg"
   xmlns:sodipodi="http://sodipodi.sourceforge.net/DTD/sodipodi-0.dtd"
   xmlns:inkscape="http://www.inkscape.org/namespaces/inkscape"
   width="16px"
   height="16px"
   id="svg3013"
   version="1.1"
   inkscape:version="0.48.5 r10040"
   sodipodi:docname="jade.svg">
  <defs
     id="defs3015" />
  <sodipodi:namedview
     id="base"
     pagecolor="#ffffff"
     bordercolor="#666666"
     borderopacity="1.0"
     inkscape:pageopacity="0.0"
     inkscape:pageshadow="2"
     inkscape:zoom="11.098901"
     inkscape:cx="-22.569913"
     inkscape:cy="4.4764388"
     inkscape:current-layer="layer1"
     showgrid="true"
     inkscape:grid-bbox="true"
     inkscape:document-units="px"
     inkscape:window-width="1360"
     inkscape:window-height="720"
     inkscape:window-x="0"
     inkscape:window-y="29"
     inkscape:window-maximized="1" />
  <metadata
     id="metadata3018">
    <rdf:RDF>
      <cc:Work
         rdf:about="">
        <dc:format>image/svg+xml</dc:format>
        <dc:type
           rdf:resource="http://purl.org/dc/dcmitype/StillImage" />
        <dc:title></dc:title>
      </cc:Work>
    </rdf:RDF>
  </metadata>
  <g
     id="layer1"
     inkscape:label="Layer 1"
     inkscape:groupmode="layer">
    <rect
       style="fill:#37abc8;fill-opacity:1;stroke:none"
       id="rect3783"
       width="16"
       height="16"
       x="0"
       y="0"
       rx="2"
       ry="2" />
    <path
       style="fill:none"
       inkscape:connector-curvature="0"
       d="m -0.55177345,8.1042677 c 0,1.2854496 1.25522419,2.4854743 3.23418445,3.1618733 -0.3951796,1.98947 -0.070821,3.592973 1.0125636,4.217791 1.1136118,0.642185 2.7726172,0.197658 4.3472382,-1.178743 1.5348917,1.320836 3.0861762,1.840652 4.1685542,1.214057 1.112521,-0.644047 1.450929,-2.356305 1.044818,-4.407877 2.061193,-0.681479 3.21417,-1.7047275 3.21417,-3.0071013 0,-1.2556514 -1.257554,-2.3419602 -3.209823,-3.0140362 C 13.697125,2.9538759 13.326677,1.3892843 12.198448,0.73866055 11.11071,0.1114222 9.5414196,0.65812576 7.9839498,2.0135551 6.3636706,0.57487358 4.8098633,0.13562864 3.6827241,0.78814337 2.5960445,1.4171669 2.285951,3.0498089 2.682411,5.0761154 0.77027305,5.7427949 -0.55177345,6.8536357 -0.55177345,8.1042677 z"
       id="path4" />
    <path
       style="fill:#f9f9f9"
       inkscape:connector-curvature="0"
       d="M 12.846452,5.7576417 C 12.689637,5.7036674 12.527145,5.652603 12.359835,5.6042986 12.387335,5.4920708 12.412567,5.381291 12.435016,5.2723947 12.80338,3.4843154 12.562531,2.0438271 11.740106,1.5695563 10.951504,1.1147955 9.6618058,1.5889525 8.3592718,2.7225108 8.2340183,2.8315208 8.1084129,2.9469193 7.9828642,3.0678684 7.8992061,2.9878443 7.8156883,2.9105157 7.7323808,2.8365468 6.3672893,1.6244761 4.9989915,1.1136897 4.1773715,1.5893317 3.3895241,2.0454153 3.1562094,3.3996101 3.4877902,5.0941848 c 0.032029,0.1636785 0.069448,0.3308263 0.1117723,0.5007745 -0.193652,0.05497 -0.3806034,0.1135808 -0.5594859,0.1759226 -1.6004271,0.5579775 -2.62253305,1.432472 -2.62253305,2.3395457 0,0.9368373 1.09723225,1.8764994 2.76420145,2.4462604 0.1315511,0.04495 0.2680522,0.08748 0.4087244,0.127842 -0.045662,0.183804 -0.085377,0.363919 -0.1187183,0.5396 -0.3161589,1.665167 -0.069257,2.987368 0.7164921,3.440572 0.8116079,0.468024 2.1737173,-0.01305 3.5000652,-1.172439 0.10483,-0.09164 0.2100382,-0.188835 0.3154363,-0.290704 0.1366063,0.131546 0.2730022,0.25605 0.4086682,0.372823 1.2847199,1.105548 2.5535941,1.551969 3.3386171,1.097503 0.810804,-0.469372 1.074307,-1.889734 0.732203,-3.61784 -0.02615,-0.131978 -0.05652,-0.266813 -0.09068,-0.40404 0.09566,-0.02829 0.189567,-0.05747 0.281132,-0.08784 1.732971,-0.5741804 2.860498,-1.5024044 2.860498,-2.4517516 0,-0.9103577 -1.055063,-1.7907427 -2.687728,-2.3527859 l 0,0 0,0 z"
       id="path6" />
    <path
       style="fill:#ffffff"
       inkscape:connector-curvature="0"
       d="m 12.470585,9.9492003 c -0.08267,0.027365 -0.167473,0.053825 -0.2539,0.079461 C 12.025374,9.423 11.767171,8.7789725 11.451195,8.1135762 c 0.301528,-0.6495434 0.549748,-1.2853385 0.735704,-1.8870691 0.154637,0.044743 0.30473,0.091938 0.449354,0.1417461 1.398864,0.481563 2.252153,1.1935616 2.252153,1.7421755 0,0.5843762 -0.921528,1.3429773 -2.417821,1.8387726 l 0,0 0,0 z m -0.620862,1.2302607 c 0.151273,0.764146 0.17288,1.455018 0.07269,1.995105 -0.09003,0.485302 -0.271092,0.808865 -0.494961,0.93845 -0.476396,0.27575 -1.4951644,-0.08269 -2.5938773,-1.028156 -0.1259583,-0.108378 -0.2528261,-0.224113 -0.3800975,-0.346596 0.4259425,-0.465851 0.8516462,-1.007414 1.2671239,-1.608875 0.7307759,-0.06484 1.4211959,-0.17086 2.0473029,-0.315596 0.03084,0.124395 0.05823,0.246388 0.08183,0.365668 l 0,0 0,0 z M 5.5711471,14.065365 C 5.1056998,14.229742 4.7349963,14.234451 4.5109115,14.105234 4.0340838,13.830212 3.8358574,12.768607 4.106253,11.34456 4.13723,11.181472 4.174086,11.013946 4.2165725,10.842708 c 0.619247,0.136933 1.3046045,0.235465 2.0371322,0.294851 0.4182772,0.588547 0.8562768,1.129519 1.2976653,1.603199 -0.096434,0.0931 -0.1924977,0.18173 -0.2880168,0.265251 -0.5865023,0.512665 -1.1742393,0.876404 -1.6922066,1.059347 l 0,0 0,0 z M 3.3905957,9.9456224 C 2.6534934,9.6936898 2.0447675,9.3662515 1.6275111,9.0089459 1.252584,8.6878612 1.0632896,8.3690892 1.0632896,8.1104276 1.0632896,7.5599814 1.8839411,6.857888 3.2526389,6.3806841 3.4187134,6.3227762 3.5925621,6.2682137 3.7729776,6.2169533 3.9621357,6.8322718 4.2102759,7.4756019 4.5097291,8.1261413 4.2063994,8.7863418 3.9547371,9.4399216 3.7637197,10.062452 3.6351015,10.025485 3.5104929,9.9865782 3.3905957,9.9456274 l 0,0 0,0 z M 4.1215344,4.9701699 C 3.8374465,3.5182978 4.026121,2.4230584 4.5009028,2.1482284 5.0066267,1.855448 6.1249288,2.2728936 7.303581,3.3194546 7.3789211,3.3863393 7.4545566,3.4563587 7.5304092,3.528794 7.0911993,4.0003973 6.6572093,4.5373096 6.2426474,5.1223868 5.5316981,5.1882754 4.8511573,5.294134 4.2254518,5.435884 4.1861116,5.2776426 4.1512697,5.1221697 4.1215343,4.9701699 l 0,0 0,0 z M 10.642171,6.5802833 C 10.492594,6.3219206 10.339033,6.0696614 10.182487,5.8242926 c 0.482314,0.060974 0.94442,0.141911 1.378383,0.2409558 C 11.430585,6.4827988 11.268198,6.9193712 11.077048,7.3669238 10.939929,7.1065921 10.794897,6.8441112 10.642171,6.5802833 l 0,0 0,0 z M 7.9830729,3.9903085 C 8.2809372,4.3130109 8.5792326,4.673302 8.8726312,5.0642119 8.5769734,5.050255 8.2776571,5.0429896 7.9758603,5.0429896 c -0.2989413,0 -0.5960512,0.00714 -0.8898812,0.020838 C 7.3796757,4.6765498 7.6805535,4.3167415 7.9830729,3.9903297 l 0,0 0,0 z M 5.3069396,6.5847526 C 5.1575252,6.8438405 5.0151831,7.1048975 4.8802151,7.3664386 4.6921587,6.9204475 4.5312797,6.4818832 4.3998653,6.0584144 4.8311646,5.9619054 5.2910934,5.882977 5.7703418,5.8231626 5.6115886,6.0707915 5.4567611,6.3249046 5.3069396,6.5846964 l 0,5.62e-5 0,0 z M 5.7841462,10.443758 C 5.2889922,10.388519 4.8221487,10.313663 4.3909582,10.21981 4.5244738,9.7887761 4.6889031,9.3408499 4.8809447,8.8852528 c 0.1353154,0.261352 0.2782224,0.5225175 0.4285524,0.782175 l 2.82e-5,0 C 5.4626547,9.931954 5.6213025,10.191072 5.7841462,10.443758 l 0,0 0,0 z m 2.2167935,1.832318 c -0.3060732,-0.330238 -0.6113641,-0.69553 -0.9095265,-1.08846 0.2894446,0.01136 0.5845376,0.01716 0.8844471,0.01716 0.3081184,0 0.6127111,-0.0069 0.9125119,-0.02029 -0.2943668,0.400002 -0.5915854,0.765864 -0.8874325,1.09158 l 0,0 0,0 z M 11.083211,8.8620334 c 0.202047,0.4605209 0.372375,0.9061055 0.507608,1.3297926 -0.438295,0.1 -0.911515,0.18052 -1.41011,0.240362 0.156924,-0.248676 0.311828,-0.5052676 0.464045,-0.7692017 0.15399,-0.2670273 0.300205,-0.5344626 0.438457,-0.8009529 l 0,0 0,0 z M 10.085375,9.340366 c -0.2362999,0.4097204 -0.4788971,0.800847 -0.7251813,1.170042 -0.4485732,0.03206 -0.9119998,0.0486 -1.3843334,0.0486 -0.4704219,0 -0.9280076,-0.01463 -1.3686453,-0.04322 C 6.3510027,10.14175 6.1031329,9.7494691 5.8683377,9.3438915 l 5.26e-5,0 C 5.6342159,8.9394181 5.4186873,8.5315289 5.2233937,8.1259267 5.4186348,7.7193848 5.6335987,7.3110347 5.8664258,6.9072891 l -5.27e-5,6.64e-5 C 6.0998212,6.502536 6.3455124,6.1121623 6.5993604,5.7404633 7.0489263,5.7064721 7.5099324,5.6887484 7.9758355,5.6887484 l 2.48e-5,0 c 0.468001,0 0.9295998,0.017851 1.3790326,0.052148 0.2499715,0.3689805 0.4939932,0.7580874 0.7283611,1.162963 0.237024,0.4094227 0.45476,0.815053 0.651667,1.2128814 -0.196318,0.4046586 -0.413565,0.8143788 -0.649546,1.2236126 l 0,0 0,0 z m 1.33216,-7.2113524 c 0.506208,0.2919212 0.703063,1.4692267 0.385019,3.0130402 -0.02029,0.0985 -0.04314,0.1988472 -0.06795,0.3005302 C 11.107454,5.297874 10.426426,5.1901921 9.713408,5.1232997 9.2980403,4.5317945 8.8676005,3.9940486 8.4355471,3.5284952 8.5517078,3.4167514 8.6677042,3.3101956 8.7832198,3.2096465 9.8992316,2.238422 10.942297,1.8549641 11.417535,2.1290136 l 0,0 0,0 z"
       id="path8" />
    <path
       style="fill:#f9f9f9"
       inkscape:connector-curvature="0"
       d="m 7.9758603,6.7605653 c 0.7454972,0 1.3498661,0.6043371 1.3498661,1.3498623 0,0.7454969 -0.6043689,1.3498658 -1.3498661,1.3498658 -0.7454939,0 -1.3498628,-0.6043689 -1.3498628,-1.3498658 0,-0.7455252 0.6043689,-1.3498623 1.3498628,-1.3498623"
       id="path10" />
    <path
       style="fill:#37abc8;fill-opacity:1;stroke:none"
       d="M 11.521841,5.3943543 C 11.167478,5.3115715 10.393115,5.1894957 9.9262285,5.142811 L 9.7187201,5.1220619 9.591746,4.9469605 C 9.2806671,4.5179703 8.8788719,4.017263 8.5756764,3.680759 L 8.4389602,3.5290235 8.5683998,3.4106211 C 9.1188585,2.9070997 9.580033,2.576238 10.063764,2.3377971 10.501836,2.1218622 10.798179,2.0409805 11.098995,2.055248 c 0.139674,0.00663 0.177635,0.015158 0.270241,0.060748 0.271931,0.1338716 0.442797,0.4545127 0.540391,1.0140855 0.04566,0.2618474 0.04137,1.028404 -0.0077,1.391641 -0.03532,0.2608753 -0.118553,0.7148256 -0.154977,0.8452112 -0.02047,0.073263 -0.02593,0.073928 -0.225,0.027421 z"
       id="path4114"
       inkscape:connector-curvature="0" />
    <path
       style="fill:#37abc8;fill-opacity:1;stroke:none"
       d="M 4.1745145,5.1913299 C 4.0492244,4.6259581 3.9997249,4.2041436 3.9993557,3.6987014 3.9986588,2.744311 4.2352038,2.1900387 4.6881931,2.084618 4.8234479,2.053142 5.1136725,2.072137 5.3154004,2.125671 c 0.5183403,0.1375549 1.1225657,0.4831677 1.7622032,1.007968 0.17932,0.1471259 0.4263921,0.3698126 0.4360828,0.3930428 0.0031,0.00743 -0.057979,0.083042 -0.1357312,0.1680242 C 7.0909919,4.0083521 6.7149741,4.4727929 6.3664518,4.9440715 L 6.237016,5.1190971 5.9108954,5.1553358 c -0.5208646,0.057879 -0.9544296,0.1258643 -1.4348235,0.2249881 -0.1314767,0.027129 -0.24123,0.049325 -0.2438964,0.049325 -0.00266,0 -0.028614,-0.1072434 -0.057661,-0.2383188 z"
       id="path4116"
       inkscape:connector-curvature="0" />
    <path
       style="fill:#37abc8;fill-opacity:1;stroke:none"
       d="M 3.4440864,9.9554534 C 2.0526798,9.491007 1.0772568,8.73301 1.0748427,8.1143234 1.0728953,7.6152059 1.7119232,7.031145 2.7500352,6.5832252 3.02692,6.4637561 3.7083533,6.2275255 3.7511858,6.236159 3.7647258,6.238889 3.8266568,6.3942884 3.902986,6.6170619 4.0467338,7.036605 4.2289349,7.5030256 4.3952407,7.8771948 L 4.5056119,8.1255179 4.387568,8.3942449 C 4.1746624,8.8789241 3.9099833,9.5723978 3.8036063,9.9242583 3.7772236,10.01152 3.7592022,10.045406 3.7393109,10.04514 3.7241095,10.044938 3.591259,10.004575 3.4440865,9.9554554 z"
       id="path4118"
       inkscape:connector-curvature="0" />
    <path
       style="fill:#37abc8;fill-opacity:1;stroke:none"
       d="m 6.9812397,10.529817 c -0.1057802,-0.0064 -0.2337197,-0.01301 -0.2843102,-0.0147 l -0.091983,-0.003 -0.1868227,-0.287643 C 6.0285802,9.6246966 5.7163666,9.0866257 5.4074937,8.4827017 L 5.2283315,8.1323945 5.3945051,7.8003637 C 5.6031397,7.3834917 5.7744,7.0725093 6.0415526,6.625424 6.2187176,6.3289347 6.5535197,5.8062098 6.5967997,5.7585191 c 0.023123,-0.025481 0.8025147,-0.060147 1.3651273,-0.060719 0.4979899,-5.07e-4 0.9270236,0.013795 1.2729806,0.042435 L 9.3562492,5.7502876 9.517316,5.995533 c 0.3409246,0.5191054 0.777908,1.2713417 1.066463,1.8358439 L 10.730032,8.1174931 10.60401,8.3691185 C 10.329249,8.9177173 9.8992557,9.6664657 9.5302706,10.238816 L 9.3571301,10.507383 8.967762,10.52755 c -0.4056572,0.02101 -1.6530342,0.02244 -1.9865223,0.0023 l 0,0 z M 8.2719969,9.4332553 C 8.5417268,9.3719062 8.7392933,9.2599682 8.9463248,9.0511917 9.5888104,8.4032911 9.4010085,7.305779 8.578394,6.9010056 8.3511766,6.7892018 8.2267675,6.7608712 7.9679633,6.7619981 7.7248429,6.7630567 7.5796902,6.7954926 7.3782166,6.8937829 6.8717923,7.1408456 6.5610364,7.709149 6.6297957,8.2624783 c 0.071871,0.5783796 0.4644413,1.0231865 1.0287712,1.1656659 0.1540914,0.038906 0.4538692,0.041399 0.61343,0.00513 l 0,0 z"
       id="path4120"
       inkscape:connector-curvature="0" />
    <path
       style="fill:#37abc8;fill-opacity:1;stroke:none"
       d="M 4.7566872,7.0498699 C 4.5981858,6.6485654 4.4024199,6.078149 4.4183114,6.0639207 4.4444926,6.04048 5.6433958,5.8310278 5.7513922,5.8310278 c 0.00507,0 -0.029886,0.062089 -0.077677,0.1379742 C 5.4686398,6.2946342 5.2138312,6.7368307 4.944875,7.2338353 L 4.8780905,7.3572469 4.7566871,7.0498699 z"
       id="path4122"
       inkscape:connector-curvature="0" />
    <path
       style="fill:#37abc8;fill-opacity:1;stroke:none"
       d="M 5.6098611,10.419072 C 5.5868654,10.415477 5.4589259,10.3976 5.3255509,10.379345 5.0234325,10.337997 4.4355875,10.23031 4.4168608,10.212883 4.394248,10.191841 4.5428382,9.7514526 4.7597511,9.1966332 L 4.8791276,8.8912924 5.0079647,9.1312419 c 0.1778278,0.3311908 0.3706317,0.6652451 0.577377,1.0003711 0.096271,0.15605 0.1750366,0.287062 0.1750366,0.291139 0,0.0083 -0.087178,0.0062 -0.1505172,-0.0037 z"
       id="path4126"
       inkscape:connector-curvature="0" />
    <path
       style="fill:#37abc8;fill-opacity:1;stroke:none"
       d="M 4.7067582,14.170307 C 4.5655446,14.139634 4.4659138,14.082954 4.3688561,13.978089 3.9741092,13.551585 3.8782313,12.50836 4.122709,11.299818 4.180184,11.0157 4.214692,10.866483 4.225399,10.855775 c 0.00422,-0.0042 0.1010825,0.01135 0.215249,0.03459 0.4770299,0.09715 1.0808054,0.184587 1.5686419,0.227152 l 0.24055,0.02099 0.1524669,0.207846 c 0.3139028,0.427918 0.6550114,0.850305 0.9600216,1.188769 0.094621,0.105003 0.169279,0.199263 0.1659073,0.209477 -0.00923,0.02797 -0.3356106,0.320774 -0.5411803,0.485507 -0.3884788,0.31131 -0.9210443,0.634312 -1.2852118,0.77949 -0.3911251,0.155925 -0.7501669,0.213909 -0.9950857,0.160705 z"
       id="path4128"
       inkscape:connector-curvature="0" />
    <path
       style="fill:#37abc8;fill-opacity:1;stroke:none"
       d="M 10.719083,14.160461 C 10.218528,14.042795 9.6350783,13.726278 9.038827,13.248934 8.8563129,13.102818 8.469687,12.755843 8.469687,12.738163 c 0,-0.0066 0.062095,-0.08283 0.1379883,-0.169465 0.3208064,-0.366219 0.6682311,-0.808252 0.9808546,-1.247953 0.067025,-0.09427 0.1276769,-0.174992 0.1347825,-0.179383 0.00714,-0.0044 0.1512757,-0.02325 0.3203786,-0.04192 0.555225,-0.06127 1.076862,-0.143238 1.532626,-0.240803 l 0.188269,-0.0403 0.0081,0.03587 c 0.05986,0.261622 0.07804,0.350052 0.107225,0.521128 0.203654,1.193933 0.07731,2.216784 -0.324141,2.624209 -0.145023,0.147182 -0.236222,0.181238 -0.502312,0.187583 -0.151347,0.0036 -0.233584,-0.0029 -0.334482,-0.02667 z"
       id="path4130"
       inkscape:connector-curvature="0" />
    <path
       style="fill:#37abc8;fill-opacity:1;stroke:none"
       d="m 10.21126,10.392197 c 0.01089,-0.02051 0.05513,-0.0938 0.09833,-0.16286 0.194002,-0.3102109 0.478002,-0.8039473 0.67652,-1.1761361 l 0.09664,-0.1811874 0.03267,0.07248 c 0.111773,0.2479266 0.464943,1.1846625 0.464943,1.2331975 0,0.02353 -0.598792,0.138686 -1.045257,0.201015 -0.137975,0.01926 -0.271742,0.03856 -0.297262,0.04291 -0.04346,0.0073 -0.04514,0.0055 -0.0266,-0.02941 z"
       id="path4132"
       inkscape:connector-curvature="0" />
    <path
       style="fill:#37abc8;fill-opacity:1;stroke:none"
       d="m 7.9679633,12.235986 c -0.013797,-0.01667 -0.1198174,-0.138176 -0.2356001,-0.270008 -0.20896,-0.237926 -0.571959,-0.681983 -0.6018867,-0.736291 -0.01457,-0.02644 0.038679,-0.02831 0.801576,-0.02807 0.4494506,1.42e-4 0.8455617,-0.005 0.8802467,-0.01157 0.04195,-0.0078 0.060945,-0.0058 0.056734,0.006 -0.023019,0.06464 -0.7686171,0.98449 -0.8520301,1.051161 -0.01861,0.01488 -0.029549,0.01238 -0.049041,-0.01117 z"
       id="path4134"
       inkscape:connector-curvature="0" />
    <path
       style="fill:#37abc8;fill-opacity:1;stroke:none"
       d="M 12.155786,9.8386341 C 12.009348,9.3956711 11.800227,8.8695674 11.573693,8.3742162 11.512981,8.2414576 11.463306,8.1242167 11.463306,8.1136807 c 0,-0.010536 0.04202,-0.1126394 0.09338,-0.2268964 0.201699,-0.4487262 0.423902,-1.0183426 0.567074,-1.4536878 0.03478,-0.1057802 0.06491,-0.1943895 0.06693,-0.1969099 0.002,-0.00252 0.1233,0.03403 0.269484,0.081224 0.905581,0.2923502 1.624256,0.6791217 2.047548,1.1019352 0.506028,0.5054558 0.49256,0.9221813 -0.04659,1.4413675 -0.456796,0.4398875 -1.194769,0.8318254 -2.11493,1.123243 l -0.128896,0.040826 -0.06155,-0.186143 0,0 z"
       id="path4136"
       inkscape:connector-curvature="0" />
    <path
       style="fill:#37abc8;fill-opacity:1;stroke:none"
       d="M 11.015793,7.2471073 C 10.855981,6.9388716 10.47415,6.2790038 10.274596,5.9661952 c -0.04419,-0.069287 -0.07831,-0.1280373 -0.07578,-0.1305566 0.02085,-0.020849 1.313164,0.2057228 1.342878,0.2354368 0.02258,0.022576 -0.409613,1.2120297 -0.460959,1.2686336 -0.0058,0.00653 -0.03515,-0.035141 -0.06493,-0.092601 z"
       id="path4138"
       inkscape:connector-curvature="0" />
    <path
       style="fill:#37abc8;fill-opacity:1;stroke:none"
       d="M 7.1930733,4.9284375 C 7.3286034,4.7532867 7.484925,4.5616181 7.6390374,4.381633 7.7653617,4.2341014 7.9772953,3.9969781 7.9828301,3.9969781 c 0.00572,0 0.226194,0.2475931 0.3387974,0.3804739 0.2070746,0.2443642 0.5461243,0.6727663 0.538489,0.6804016 -0.00181,0.00181 -0.1454754,-0.00151 -0.3192592,-0.00738 -0.308352,-0.010416 -1.0312635,-0.00746 -1.3264782,0.00543 L 7.0902503,5.061322 7.1930737,4.9284398 z"
       id="path4142"
       inkscape:connector-curvature="0" />
  </g>
</svg>
