<?xml version="1.0" encoding="UTF-8" standalone="no"?>
<!-- Created with Inkscape (http://www.inkscape.org/) -->

<svg
   xmlns:dc="http://purl.org/dc/elements/1.1/"
   xmlns:cc="http://creativecommons.org/ns#"
   xmlns:rdf="http://www.w3.org/1999/02/22-rdf-syntax-ns#"
   xmlns:svg="http://www.w3.org/2000/svg"
   xmlns="http://www.w3.org/2000/svg"
   xmlns:sodipodi="http://sodipodi.sourceforge.net/DTD/sodipodi-0.dtd"
   xmlns:inkscape="http://www.inkscape.org/namespaces/inkscape"
   width="16px"
   height="16px"
   id="svg3013"
   version="1.1"
   inkscape:version="0.48.5 r10040"
   sodipodi:docname="sass.svg">
  <defs
     id="defs3015" />
  <sodipodi:namedview
     id="base"
     pagecolor="#ffffff"
     bordercolor="#666666"
     borderopacity="1.0"
     inkscape:pageopacity="0.0"
     inkscape:pageshadow="2"
     inkscape:zoom="11.098901"
     inkscape:cx="11.317842"
     inkscape:cy="8.2395945"
     inkscape:current-layer="layer1"
     showgrid="true"
     inkscape:grid-bbox="true"
     inkscape:document-units="px"
     inkscape:window-width="1360"
     inkscape:window-height="720"
     inkscape:window-x="0"
     inkscape:window-y="29"
     inkscape:window-maximized="1" />
  <metadata
     id="metadata3018">
    <rdf:RDF>
      <cc:Work
         rdf:about="">
        <dc:format>image/svg+xml</dc:format>
        <dc:type
           rdf:resource="http://purl.org/dc/dcmitype/StillImage" />
        <dc:title></dc:title>
      </cc:Work>
    </rdf:RDF>
  </metadata>
  <g
     id="layer1"
     inkscape:label="Layer 1"
     inkscape:groupmode="layer">
    <rect
       style="fill:#ff80b2;fill-opacity:1;stroke:none"
       id="rect3783"
       width="16"
       height="16"
       x="0"
       y="0"
       rx="2"
       ry="2" />
    <path
       inkscape:connector-curvature="0"
       d="m 13.400171,8.7164193 c -0.527787,0.00295 -0.984809,0.1297359 -1.368118,0.3184404 -0.141527,-0.2801096 -0.283057,-0.5248378 -0.306645,-0.7076453 -0.02653,-0.2122951 -0.05896,-0.3420291 -0.02653,-0.5956032 0.03243,-0.2535722 0.179859,-0.6132934 0.179859,-0.6427781 -0.003,-0.026537 -0.03243,-0.1562713 -0.336131,-0.1592206 -0.303698,-0.00295 -0.566118,0.058968 -0.595602,0.1385811 -0.02949,0.079609 -0.08845,0.2624182 -0.126787,0.4511235 -0.05307,0.2771621 -0.607397,1.2590209 -0.9228901,1.775012 -0.103198,-0.2004985 -0.191653,-0.377409 -0.209345,-0.5189387 -0.02654,-0.2122949 -0.05897,-0.3420289 -0.02654,-0.5956031 0.03243,-0.2535722 0.17986,-0.6132925 0.17986,-0.6427791 -0.0029,-0.026536 -0.03243,-0.1562702 -0.336132,-0.1592195 -0.303698,-0.00295 -0.566116,0.058967 -0.595602,0.13858 -0.02949,0.079609 -0.06192,0.2683159 -0.1267868,0.4511254 -0.06192,0.1828076 -0.7990495,1.822188 -0.9907046,2.2497249 -0.0973,0.218191 -0.1828094,0.392153 -0.2447284,0.510095 -0.061919,0.11794 -0.00295,0.0088 -0.00885,0.02064 -0.053073,0.100249 -0.082558,0.156272 -0.082558,0.156272 v 0.003 c -0.041282,0.07371 -0.085509,0.144478 -0.1061467,0.144478 -0.014736,0 -0.044229,-0.197552 0.00589,-0.468817 0.1090955,-0.569065 0.3744627,-1.4565716 0.3715139,-1.4890047 0,-0.014738 0.050126,-0.1710152 -0.1710149,-0.2506252 -0.2152409,-0.079607 -0.2919035,0.053071 -0.3095948,0.053071 -0.01769,0 -0.032435,0.047178 -0.032435,0.047178 0,0 0.2388301,-0.9995495 -0.4570217,-0.9995495 -0.4363818,0 -1.0378817,0.4747114 -1.335683,0.9081443 C 5.2327503,8.9552895 4.8317493,9.1734783 4.4071626,9.406411 4.2449934,9.494874 4.0769276,9.5892201 3.9177074,9.6747277 L 3.885272,9.639347 C 3.0419949,8.7400107 1.4822236,8.1031298 1.5470916,6.8942341 1.5706815,6.454903 1.7240031,5.2961325 4.5427945,3.8926349 6.8514896,2.7427097 8.700215,3.0582011 9.0216049,3.7599515 9.4786259,4.7624509 8.0338488,6.625918 5.6337492,6.8942341 4.7197059,6.9974328 4.2390964,6.6436093 4.118206,6.510926 3.991419,6.3723459 3.9737277,6.3664481 3.9265527,6.3929845 c -0.076662,0.041283 -0.029485,0.1651182 0,0.2388293 0.070765,0.1857588 0.3656172,0.5159935 0.8668665,0.6811108 C 5.23275,7.4574024 6.306012,7.5370121 7.6033637,7.0357626 9.0569839,6.4725932 10.192167,4.909875 9.8589849,3.6036773 9.5199049,2.2738925 7.3144071,1.8375106 5.2297988,2.5775906 3.9884696,3.0198703 2.6439407,3.7098254 1.6768255,4.6150217 0.52689936,5.6882857 0.34409116,6.6259171 0.42075246,7.015123 0.68906846,8.4038778 2.602662,9.3090762 3.3692783,9.978391 c -0.038331,0.020642 -0.073713,0.041285 -0.1061468,0.058964 -0.3833079,0.188706 -1.8428292,0.952376 -2.2084463,1.76027 -0.41279214,0.914044 0.064868,1.571565 0.3833084,1.660021 0.984808,0.274213 1.9932037,-0.218191 2.5386814,-1.029036 0.542528,-0.810844 0.4776618,-1.863468 0.2270371,-2.344077 L 4.1948669,10.066843 4.495616,9.8899324 C 4.6902182,9.7749405 4.8818734,9.6687915 5.0499387,9.5773886 4.9555859,9.8339092 4.8877695,10.137608 4.8523875,10.579887 c -0.041282,0.51894 0.1710147,1.191204 0.4511254,1.456572 0.1238376,0.114993 0.2712632,0.117941 0.3626681,0.117941 0.3243384,0 0.4717634,-0.268316 0.6339327,-0.589705 0.2005006,-0.392155 0.3774117,-0.846228 0.3774117,-0.846228 0,0 -0.2211388,1.229536 0.3833083,1.229536 0.2211388,0 0.4422781,-0.286008 0.5425282,-0.433433 v 0.003 c 0,0 0.00589,-0.0088 0.01769,-0.02949 0.02359,-0.03538 0.035381,-0.05602 0.035381,-0.05602 v -0.0059 c 0.088456,-0.153324 0.2860072,-0.5042 0.5808598,-1.085059 0.3803606,-0.748925 0.745978,-1.686556 0.745978,-1.686556 0,0 0.03538,0.2299844 0.144478,0.6073956 0.06487,0.2240886 0.206395,0.4688163 0.315491,0.7076466 -0.08846,0.1238368 -0.141529,0.1946018 -0.141529,0.1946018 l 0.003,0.003 c -0.07076,0.09436 -0.150374,0.194604 -0.232933,0.294854 -0.300751,0.359717 -0.6604701,0.769563 -0.7076469,0.887504 -0.056022,0.138582 -0.044227,0.24178 0.064869,0.324339 0.07961,0.05896 0.2211388,0.07076 0.3715133,0.05896 0.2712651,-0.01769 0.4599711,-0.0855 0.5543231,-0.126786 0.147427,-0.05307 0.315493,-0.132685 0.477661,-0.250624 0.2948538,-0.218192 0.4747118,-0.527786 0.4570198,-0.940581 -0.0088,-0.227037 -0.08256,-0.4511247 -0.173961,-0.6634193 0.02654,-0.038333 0.05307,-0.076666 0.07961,-0.1179419 0.465868,-0.6811065 0.825588,-1.4300321 0.825588,-1.4300321 0,0 0.03538,0.2299842 0.144477,0.607397 0.05602,0.1916521 0.168068,0.400998 0.268316,0.607395 -0.436381,0.3567721 -0.710593,0.7695643 -0.804948,1.0408293 -0.173962,0.50125 -0.03832,0.728285 0.218192,0.78136 0.114992,0.02358 0.28011,-0.02949 0.403949,-0.08256 0.153323,-0.05013 0.33908,-0.135633 0.510094,-0.262419 0.294853,-0.21819 0.577911,-0.521889 0.563168,-0.9317358 -0.0088,-0.1887034 -0.05896,-0.3744625 -0.126787,-0.551373 0.371514,-0.1533237 0.852123,-0.2417801 1.462469,-0.1680664 1.312094,0.1533226 1.571564,0.9730132 1.52144,1.3150432 -0.05013,0.342027 -0.324338,0.530734 -0.415743,0.589705 -0.0914,0.05602 -0.120888,0.07667 -0.112043,0.117941 0.0118,0.06192 0.05307,0.05896 0.132683,0.04718 0.109095,-0.01769 0.689957,-0.280109 0.713543,-0.911096 0.03538,-0.8108433 -0.734183,-1.6954008 -2.09935,-1.6865557 z M 3.2808297,12.127863 c -0.4334325,0.474713 -1.043778,0.654573 -1.3032484,0.501249 -0.2801105,-0.162168 -0.1710147,-0.86097 0.3626682,-1.365167 0.3243383,-0.306647 0.7459778,-0.589705 1.0231395,-0.763669 0.061918,-0.03832 0.1562707,-0.09436 0.2683159,-0.162167 0.01769,-0.0118 0.029486,-0.01769 0.029486,-0.01769 0.02064,-0.0118 0.044227,-0.02654 0.067817,-0.04128 0.1975514,0.71944 0.00885,1.350425 -0.4481764,1.848725 z M 6.450495,9.9724902 C 6.3001205,10.341056 5.9816801,11.287533 5.790025,11.23446 5.6249087,11.190229 5.5246584,10.473741 5.757594,9.7660953 5.8755354,9.4093232 6.1261601,8.9847351 6.2735857,8.8196185 6.5124158,8.5542494 6.7718861,8.4657945 6.8367541,8.5748899 6.9134154,8.7164193 6.5448506,9.7425051 6.4504971,9.9724902 z m 2.6153419,1.2501758 c -0.06487,0.03243 -0.123838,0.05602 -0.150375,0.03832 -0.02064,-0.0118 0.02654,-0.05602 0.02654,-0.05602 0,0 0.327287,-0.350872 0.457021,-0.513041 0.07371,-0.09436 0.162169,-0.203448 0.256522,-0.327286 v 0.03538 c 0,0.424586 -0.406896,0.707644 -0.589706,0.822637 z m 2.0167931,-0.45997 c -0.04718,-0.03538 -0.04129,-0.144478 0.11794,-0.486508 0.06192,-0.13563 0.203448,-0.3626676 0.448176,-0.5779099 0.02949,0.088463 0.04718,0.1739639 0.04423,0.253574 -0.003,0.5307329 -0.380359,0.7282849 -0.610344,0.8108439 z"
       id="path4"
       style="fill:#f9f9f9" />
  </g>
</svg>
