<?xml version="1.0" encoding="UTF-8" standalone="no"?>
<!-- Created with Inkscape (http://www.inkscape.org/) -->

<svg
   xmlns:dc="http://purl.org/dc/elements/1.1/"
   xmlns:cc="http://creativecommons.org/ns#"
   xmlns:rdf="http://www.w3.org/1999/02/22-rdf-syntax-ns#"
   xmlns:svg="http://www.w3.org/2000/svg"
   xmlns="http://www.w3.org/2000/svg"
   xmlns:sodipodi="http://sodipodi.sourceforge.net/DTD/sodipodi-0.dtd"
   xmlns:inkscape="http://www.inkscape.org/namespaces/inkscape"
   width="16px"
   height="16px"
   id="svg3013"
   version="1.1"
   inkscape:version="0.48.5 r10040"
   sodipodi:docname="sass.svg">
  <defs
     id="defs3015" />
  <sodipodi:namedview
     id="base"
     pagecolor="#ffffff"
     bordercolor="#666666"
     borderopacity="1.0"
     inkscape:pageopacity="0.0"
     inkscape:pageshadow="2"
     inkscape:zoom="11.098901"
     inkscape:cx="4.0653295"
     inkscape:cy="11.775538"
     inkscape:current-layer="layer1"
     showgrid="true"
     inkscape:grid-bbox="true"
     inkscape:document-units="px"
     inkscape:window-width="1360"
     inkscape:window-height="720"
     inkscape:window-x="0"
     inkscape:window-y="29"
     inkscape:window-maximized="1" />
  <metadata
     id="metadata3018">
    <rdf:RDF>
      <cc:Work
         rdf:about="">
        <dc:format>image/svg+xml</dc:format>
        <dc:type
           rdf:resource="http://purl.org/dc/dcmitype/StillImage" />
        <dc:title></dc:title>
      </cc:Work>
    </rdf:RDF>
  </metadata>
  <g
     id="layer1"
     inkscape:label="Layer 1"
     inkscape:groupmode="layer">
    <rect
       style="fill:#ff7f2a;fill-opacity:1;stroke:none"
       id="rect3783"
       width="16"
       height="16"
       x="0"
       y="0"
       rx="2"
       ry="2" />
    <g
       id="g4"
       transform="matrix(0.0302918,0,0,0.0302918,0.28663635,3.1469768)"
       style="fill:#f2f2f2">
      <path
         style="fill:#f2f2f2"
         inkscape:connector-curvature="0"
         d="m 78.908788,244.60394 c 13.280107,-15.88405 14.842472,-32.28888 4.556899,-62.75501 -6.509856,-19.26918 -17.316218,-34.11165 -9.374193,-46.08979 8.462813,-12.75931 26.430016,-0.39059 11.457347,16.66524 l 2.994534,2.08315 c 17.967205,2.08315 26.820605,-22.5241 13.410305,-29.55475 -35.41362,-18.48799 -66.400536,17.05583 -52.729837,58.19812 5.85887,17.44641 14.061289,35.93441 7.421236,50.64668 -5.728674,12.62912 -16.79543,20.05036 -24.216666,20.31075 -15.493458,0.78119 -5.207885,-34.76263 12.629122,-43.61603 1.562365,-0.78119 3.775716,-1.82276 1.692562,-4.42671 -22.003314,-2.47374 -34.89283,7.68163 -42.3140662,21.87312 -21.6127228,41.27249 41.0120952,56.50555 74.4727572,16.66523 z M 465.59426,123.26022 c 5.07768,12.49892 12.75931,24.86765 8.20241,35.80421 -3.77571,9.37419 -8.7232,13.28011 -14.19148,14.19149 -7.68163,1.30197 -5.59848,-22.7845 7.55143,-29.94534 1.17177,-0.65099 2.86434,-3.77572 1.30197,-5.59848 -16.66523,-0.91138 -26.03942,7.03065 -31.11711,17.57661 -14.71228,30.85672 33.33046,39.31954 56.89614,8.98361 9.3742,-12.10834 9.76479,-24.08647 0.78119,-45.82939 -5.72868,-13.8009 -14.45188,-24.086471 -8.98361,-33.20027 5.85887,-9.634588 19.92016,-1.301972 9.3742,11.587544 l 2.34355,1.301971 c 13.67069,0.781183 19.26917,-17.446415 8.8534,-22.003314 -27.47159,-11.717742 -53.12043,17.837006 -41.01209,47.131359 z M 291.65089,90.320347 c -9.50439,-7.551433 -36.1948,5.077689 -43.74623,23.826073 -9.50439,23.82608 -23.56568,58.58871 -37.36658,73.82177 -14.58208,16.01425 -16.01424,3.64552 -14.58208,-5.59847 3.38513,-21.74292 24.60726,-72.12921 36.19481,-86.320699 -4.29651,-6.379659 -32.41909,-5.468279 -51.94866,24.867649 -7.29104,11.45735 -23.95627,49.60511 -42.44426,79.68064 -4.03611,6.50986 -9.1138,1.95296 -5.20789,-13.2801 4.42671,-17.57661 17.44642,-65.87975 34.24185,-103.89731 44.00663,-8.723208 90.7474,-14.842473 126.55161,-14.97267 4.81729,-1.301971 8.07222,-5.598476 0,-5.858871 -30.85672,-1.041577 -77.2069,2.603943 -120.56254,8.072222 8.33261,-16.665232 17.31621,-29.945339 26.43001,-35.543815 -9.89498,-6.249463 -29.94534,-3.775717 -41.40268,13.149909 -5.07769,7.551434 -10.15538,16.665233 -14.97267,26.560214 -31.7681,4.947491 -58.979302,10.545968 -72.780197,15.753853 -14.321684,5.468279 -12.759319,22.784498 -4.036111,19.529568 18.097401,-6.77025 42.574458,-13.800895 69.785658,-20.050357 -17.31622,39.059137 -30.85672,85.148917 -34.11164,103.897307 -8.072227,45.56899 20.18055,45.3086 33.98144,27.3414 14.97267,-19.65977 46.21998,-88.79444 51.03728,-96.08548 1.43217,-2.47375 3.38512,-1.17178 2.34355,1.04158 -34.89283,69.65546 -31.8983,96.60626 -3.64552,90.6172 12.75932,-2.73414 34.76263,-24.60726 40.4913,-35.93441 1.17178,-2.73414 3.64552,-2.47375 3.12473,-1.30197 -22.13351,57.41693 -50.25609,103.8973 -69.13467,118.47938 -17.18602,13.14991 -29.94534,-15.36326 30.85672,-56.24516 8.9836,-6.11926 4.81729,-14.45188 -5.33808,-11.58754 -31.37751,4.94749 -121.213528,33.46066 -160.663257,60.80206 -2.994534,2.08315 -5.728674,3.77571 -5.598477,8.07222 0.130197,2.47375 4.426702,1.56236 6.509857,0.26039 51.037273,-30.59632 92.830547,-42.57446 140.743097,-52.59964 0.65098,0.2604 1.43217,0.3906 2.08315,0.1302 2.21335,-0.52079 2.08315,0.65099 0.65099,1.56237 -3.25493,1.82276 -6.50986,3.51532 -7.29104,3.77571 -32.28889,12.62912 -51.81846,40.49131 -44.91801,54.6828 5.85887,12.23853 37.49677,7.81182 52.46944,-0.2604 36.71559,-19.92016 63.406,-58.9793 81.6336,-112.88091 15.88405,-47.78234 35.93441,-101.944347 40.6215,-103.506713 z m 213.3931,110.276963 c -59.76049,-7.81182 -188.65564,2.60395 -245.55179,17.70681 -16.92562,4.42671 -12.23853,13.41031 -3.64552,11.71774 0.1302,0 3.77572,-0.91138 3.90592,-0.91138 46.74077,-9.11379 160.14246,-17.05582 226.2826,-4.4267 7.94203,1.43217 31.7681,-22.3939 19.00879,-24.08647 z m -196.72786,-7.03064 c 16.66523,-8.33262 41.40268,-59.89068 57.67732,-88.14346 1.17178,-2.08315 3.25493,-0.39059 2.08316,1.04158 -41.14229,70.82724 -23.69588,79.02966 -7.42124,77.98808 21.74292,-1.30197 41.79328,-32.54928 46.21998,-39.57993 1.82276,-2.73414 2.86434,-0.52079 1.82276,1.43217 -1.04158,3.25493 -4.81729,8.9836 -8.33262,16.79543 -4.94749,11.06676 0.2604,15.36326 4.5569,17.31622 6.77026,3.25493 25.25825,1.17177 28.12258,-10.15538 -18.48799,-0.39059 25.77903,-87.622663 30.33593,-92.960745 -12.36872,-7.160842 -31.5077,0.650985 -40.23091,17.837006 -18.61819,36.845789 -34.24184,66.530729 -44.00663,67.051519 -19.00878,1.04158 21.87312,-82.154386 28.51317,-84.758328 -4.03611,-5.858871 -29.94534,-3.385125 -44.39722,19.00878 -5.20788,8.072218 -36.97598,64.317378 -44.78781,73.561378 -13.80089,16.40484 -14.84247,2.34355 -10.93656,-14.06129 1.30197,-5.59848 3.51533,-12.75932 6.37966,-20.70134 9.1138,-20.57115 18.87859,-27.08101 24.86765,-33.72106 40.23092,-44.657614 63.27581,-80.852416 54.16201,-95.0439024 -8.07222,-12.6291214 -35.02303,-7.0306449 -52.33925,19.0087804 -31.89829,47.782346 -61.32284,113.271502 -65.09856,143.216842 -3.64552,29.94534 18.0974,32.15869 32.80968,24.86765 z M 325.24175,105.944 c 1.43217,-3.25492 2.34355,-4.16631 4.8173,-9.634585 l 0,0 c 14.32168,-31.507704 32.28888,-64.707972 44.65761,-80.20143 7.68163,-8.0722219 18.48799,2.864337 -1.04158,32.809676 -11.45734,17.706809 -24.47706,33.98145 -38.66854,48.303134 0,0 0,0 0,0.130197 -3.64552,4.036108 -6.90045,7.421238 -8.33262,9.374198 -1.04158,1.30197 -2.21335,1.04157 -1.43217,-0.78119 l 0,0 z"
         id="path6" />
    </g>
  </g>
</svg>
